/* XPM */
static char * door_open_xpm[] = {
"64 64 6 1",
" 	c None",
".	c #787578",
"+	c #464646",
"@	c #22B14C",
"#	c #A51319",
"$	c #ED1C24",
".........                                              .........",
".........                                              .........",
".........                                              .........",
".........                                              .++++@@+.",
".........                                              .++++@@+.",
".........                                              .........",
".........                                              .........",
".........                                              .........",
".........                                              .........",
".........                                              .........",
".........                                              .........",
".........                                              .........",
".........                                              .........",
".........                                              .........",
".........                                              .........",
".........                                              .........",
".........                                              .........",
".........                                              .........",
".........                                              .........",
".........                                              .........",
".........                                              .........",
".........                                              .........",
".........                                              .........",
".........                                              .........",
".........                                              .........",
".........                                              .........",
".........                                              .........",
".........                                              .........",
".........                                              .........",
".........                                              .........",
".........                                              ...###...",
".........                                              ..#$$$#..",
".........                                              ..#$$$#..",
".........                                              ..#$$$#..",
".........                                              ...###...",
".........                                              .........",
".........                                              .........",
".........                                              .........",
".........                                              .........",
".........                                              .........",
".........                                              .........",
".........                                              .........",
".........                                              .........",
".........                                              .........",
".........                                              .........",
".........                                              .........",
".........                                              .........",
".........                                              .........",
".........                                              .........",
".........                                              .........",
".........                                              .........",
".........                                              .........",
".........                                              .........",
".........                                              .........",
".........                                              .........",
".........                                              .........",
".........                                              .........",
".........                                              .........",
".........                                              .........",
".........                                              .........",
".........                                              .........",
".........                                              .........",
".........                                              .........",
".........                                              ........."};
