/* XPM */
static char * door_xpm[] = {
"10 10 4 1",
" 	c None",
".	c #FF7E00",
"+	c #7C3D00",
"@	c #B25800",
"..........",
"..........",
"..........",
"..........",
".......++@",
"..........",
"..........",
"..........",
"..........",
".........."};
