/* XPM */
static char * door_closed_xpm[] = {
"64 64 6 1",
" 	c None",
".	c #787578",
"+	c #7D4732",
"@	c #464646",
"#	c #ED1C24",
"$	c #A51319",
".........++++++++++++++++++++++++++++++++++++++++++++++.........",
".........++++++++++++++++++++++++++++++++++++++++++++++.........",
".........++++++++++++++++++++++++++++++++++++++++++++++.........",
".........++++++++++++++++++++++++++++++++++++++++++++++.@##@@@@.",
".........++++++++++++++++++++++++++++++++++++++++++++++.@##@@@@.",
".........++++++++++++++++++++++++++++++++++++++++++++++.........",
".........++++++++++++++++++++++++++++++++++++++++++++++.........",
".........++++++++++++++++++++++++++++++++++++++++++++++.........",
".........++++++++++++++++++++++++++++++++++++++++++++++.........",
".........++++++++++++++++++++++++++++++++++++++++++++++.........",
".........++++++++++++++++++++++++++++++++++++++++++++++.........",
".........++++++++++++++++++++++++++++++++++++++++++++++.........",
".........++++++++++++++++++++++++++++++++++++++++++++++.........",
".........++++++++++++++++++++++++++++++++++++++++++++++.........",
".........++++++++++++++++++++++++++++++++++++++++++++++.........",
".........++++++++++++++++++++++++++++++++++++++++++++++.........",
".........++++++++++++++++++++++++++++++++++++++++++++++.........",
".........++++++++++++++++++++++++++++++++++++++++++++++.........",
".........++++++++++++++++++++++++++++++++++++++++++++++.........",
".........++++++++++++++++++++++++++++++++++++++++++++++.........",
".........++++++++++++++++++++++++++++++++++++++++++++++.........",
".........++++++++++++++++++++++++++++++++++++++++++++++.........",
".........++++++++++++++++++++++++++++++++++++++++++++++.........",
".........++++++++++++++++++++++++++++++++++++++++++++++.........",
".........++++++++++++++++++++++++++++++++++++++++++++++.........",
".........++++++++++++++++++++++++++++++++++++++++++++++.........",
".........++++++++++++++++++++++++++++++++++++++++++++++.........",
".........++++++++++++++++++++++++++++++++++++++++++++++.........",
".........++++++++++++++++++++++++++++++++++++++++++++++.........",
".........++++++++++++++++++++++++++++++++++++++++++++++.........",
".........++++++++++++++++++++++++++++++++++++++++++++++...$$$...",
".........++++++++++++++++++++++++++++++++++++++++++++++..$###$..",
".........++++++++++++++++++++++++++++++++++++++++++++++..$###$..",
".........++++++++++++++++++++++++++++++++++++++++++++++..$###$..",
".........++++++++++++++++++++++++++++++++++++++++++++++...$$$...",
".........++++++++++++++++++++++++++++++++++++++++++++++.........",
".........++++++++++++++++++++++++++++++++++++++++++++++.........",
".........++++++++++++++++++++++++++++++++++++++++++++++.........",
".........++++++++++++++++++++++++++++++++++++++++++++++.........",
".........++++++++++++++++++++++++++++++++++++++++++++++.........",
".........++++++++++++++++++++++++++++++++++++++++++++++.........",
".........++++++++++++++++++++++++++++++++++++++++++++++.........",
".........++++++++++++++++++++++++++++++++++++++++++++++.........",
".........++++++++++++++++++++++++++++++++++++++++++++++.........",
".........++++++++++++++++++++++++++++++++++++++++++++++.........",
".........++++++++++++++++++++++++++++++++++++++++++++++.........",
".........++++++++++++++++++++++++++++++++++++++++++++++.........",
".........++++++++++++++++++++++++++++++++++++++++++++++.........",
".........++++++++++++++++++++++++++++++++++++++++++++++.........",
".........++++++++++++++++++++++++++++++++++++++++++++++.........",
".........++++++++++++++++++++++++++++++++++++++++++++++.........",
".........++++++++++++++++++++++++++++++++++++++++++++++.........",
".........++++++++++++++++++++++++++++++++++++++++++++++.........",
".........++++++++++++++++++++++++++++++++++++++++++++++.........",
".........++++++++++++++++++++++++++++++++++++++++++++++.........",
".........++++++++++++++++++++++++++++++++++++++++++++++.........",
".........++++++++++++++++++++++++++++++++++++++++++++++.........",
".........++++++++++++++++++++++++++++++++++++++++++++++.........",
".........++++++++++++++++++++++++++++++++++++++++++++++.........",
".........++++++++++++++++++++++++++++++++++++++++++++++.........",
".........++++++++++++++++++++++++++++++++++++++++++++++.........",
".........++++++++++++++++++++++++++++++++++++++++++++++.........",
".........++++++++++++++++++++++++++++++++++++++++++++++.........",
".........++++++++++++++++++++++++++++++++++++++++++++++........."};
