/* XPM */
static char * door_closed_xpm[] = {
"64 64 12 1",
" 	c None",
".	c #607D8B",
"+	c #66473D",
"@	c #80574D",
"#	c #795548",
"$	c #7A4E45",
"%	c #804F45",
"&	c #637C8F",
"*	c #F44336",
"=	c #824C40",
"-	c #9E9E9E",
";	c #000000",
"....+@@+#######+##$@#@$++$$+#####@#@#+@+@+@#+##+%%#%+%+%%+%%.&&.",
"....+#@+#@###@#+@@$$$@#+#$#++$#@$###@+#+#+@++@#+#@#%+%++%+%%....",
"....+@#+@###@##+@$$#$#$+##$$++$@$#$$#+#+#+#+@@#+%%#+#%#+%+%%.**.",
"....+@@+#@####+@@@#@$#+#@$+@#++##$$#@+@+#+#+@##@+@%+%%%+%%+%****",
"....+@@+##@@@#+@@$$#$++$$++#@#++$@$##+@+#+#+###++##++##+%%+#****",
"....+#@+@###@#+@@@$$++$$++$+@#$++$%%#+@+#+#+@@@+#%##+##+#%+%.**.",
"....+#@+#@@##++$#@#$+$@++@#++@$$+@$$+@#+@+@+@##+%#%%+%#++=++....",
"....+@#+####$+@#$@@$+$$+#@$@++$%+#$$+##+@+#+#@@+###%+==%+%#+....",
"....+##+@####+$##$$+@@@+#@#$%+$$$+$$+%%+#+#++##+##==+##=+=##....",
"....+#@@+####+#$@$@+@$++$#+$#++$$+%#++#+#++#+#%+#==#+%==+##=....",
"....++@#+##@$+#@$#$+#@+$+++@$%+#@+$%%+%++%+@+##+###==+#=++##....",
"....@+@#+@#@@+#@##@+$$+$++++##+#$+##@+@%+@+%+##+##%=#+==#+##....",
"....@+@@++@#$+##$$@+#$++$+++$%++$+%##+%@+%+#+##+%%%==+===+##....",
"....#+@#@+#@@@+$@##+$$$+$+++$$+#%+%##+#%+%+%+%#++=#=#+#==++=....",
"....#@+@@+#@@@+$$#$++#$+#++$#++#%+#%%+@#+%+#+%#%+####+=#==+#....",
"....@@+@@+@@@$+$$$#$+$$+#++$++$$%+%#%+@#+++#+#%%+#%##++=##+=....",
"....#@+@@@+@#@@+###$+#$+$+$@+#$%#+#%@+##++#@+#%##+####+##=+#....",
"....@@+@@#+@#@@+#@#$+$@++#$#+$$#++###+@#++#%+#%%%+##=#+===++....",
"....@@+@@@+@@#@++###+$@$+#$+#$$#+####+#+++%#+#%%%++###+=#==+....",
"....@@+@@@#+@#@#+#@#+##$+$$+$##++####+#+#+#%+%#%##+###+==##+....",
"....@#+#@@#+#@##++@@++#$++$+@##+#####+#+%+%#+#%###+###++=#==....",
"....@@+@#@#@+###@+###+#$#+$+#%++#@@#+#%+%+%#+%=###+####+####....",
"....$#+@@#@@+####+$$$++##+#+#%+#%###+##+%+%%+%%=##++####+==#....",
"....$$+$@$@#+#@$$#+@##+@#+++%++@#%@#+##+#+%#+%%###%+##==++##....",
"....$$+@$$##+####$+@@@+$$++%%+%@++@%+#@++%+%+%%####++##=#+==....",
"....@$+#$##$+##$+$$+##+@$++%@+%%+++%++@#+#+%%+%%++#=+###=++#....",
"....$$+$#$$$#+$$+$$+$$+$%+$%%+%++#+#%+#@+++%%+%%++#=#+=##=++....",
"....$$+$$##$$+$#+$$+$$+#$+$%++%+%%+@@++#@++#%+%%+++#=++==#=+....",
"....@#+$##$$$+$$+$#$+$+#$#$%+@++%@++#@+%+%+%#+%#+%+#==+#=###....",
"....$#+$$$$$$+$$+$$#+$++#$#%+%+@+%@+%#+%+%++%+%#+#++=##+=#=#....",
"....$@+$$$$$$+$$+$@#+##+#%%%+@+@++%+@@+%+#%+%+%%+##+=##+==#=.**.",
"....$#++$$$$#+##+$#$+$$+#%%@+@+@++%+@#+#++#+%+#%+%##+##++#==.-;.",
"....$$#+$$$$$+$#+$#$+$#+@##@+#+%++@+##+#++%+#+##+=++++#=+===.;-.",
"....#$$+#$#$#+$@+@##+@$++%%%+#+%%+@+@#+#%+#+%+#%+%#+#+##+###.-;.",
"....#$@++@@$$+$@+@#@+%%#+%%#+%++#+@#+#+#%+#+%+%%++%+#+##+##=.;-.",
"....$#$$+$#$++@++$#++@%@+%%%+%%+#++#+#+%%+%+%+%%%+#+%+##+##=.-;.",
"....$$#$+@$$+$$$$#@+#%%++#%#+%%+#++#+#+##+%+++%%#+#%++##+##+.;-.",
"....$#$$++$$+$#@%#@+%#@+@%%%+%%+#@+@+##+#++%++#%%++#+%#++##+....",
"....##$$$+#$+#%###%+#%%+#%%%++@++#+#+##+##+%+#+%%%++%%#+##=+....",
"....##$$$+$@$+%%+%++#%#+%#%#%+@#+@#+###+##+#+%+##%++#%#+#=#+....",
"....##$$#+$$%+%%%+%#%%#+%#%@%+##+##+###+##+%+%+%%#++##++###+....",
"....$$$$#+$$%+%%#+%#%%#+%###%+#@#+#+###+##+#+#+#%#####+=#===....",
"....+$##@+#%#+##%#+%%%#+%#%@%#+##+++==#+=#+#+%#+%##%%#+###=#....",
"....+@$$$$+##+%#%#+@#@%+#%%##@+==#++#=#+==+##+#+%%#%##+##+#=....",
"....+#####+%%++#%%#+%%#+#%%###+#=#+###=+==#+#+#+%%####+=#+##....",
"....++$##@+#%#+###%+%%#++#####++=#==###++==+=+#++#=###+#=#+#....",
"....#+@###+@@@+%%#%++###+@#####+++#=#=#=+==+=++=+#####+####+....",
"....@+#@#@+#@%#+%%#@+#@##+######=++===##+==#+=+=+#####+##=#+....",
"....@++@#@+#@#@+%###+####+##@#=#=#+=####+=#=+=++#+####+#####....",
"....@#+%@@+@##@++###+##%#+###++###=+####=+##++#+#+=###+###=#....",
"....@%+%@%+@@#@#+@##%+%#%++##+++=#=++=#==++##+#++++=##++###=....",
"....#@+@%%+#@###+#@#%+%%%%+%#+#++==#+=###=+=##+=+#+=###++=##....",
"....%@+%%@+%@#@#++%##+%%##+##+##+####+#===++=#+=+#+####=+++=....",
"....##+%@%+@@#@#=+=#%+%%#++#%+###++##++####++#+#+=++###===#+....",
"....#%+%#%+%####@+#%%+%##+#%#+#+##++##+==#=#+=+#+##+###=====....",
"....%%+%@+@%@@=%#++#%+#==++##+#++##+#=+=#=##++#+=+=+###++###....",
"....%%+#%+@%%#%%%#+#%+%##=+%#+=#+##+##++#=###+=+#+#++###++==....",
"....%+%%%+%%%@@%%=+%%+##%++##++#+#++##=+##=##+#+#++#+###+++#....",
"....#+%%%+%@#+%%%%+%++%%%+%%#=+=#++###=+#=###+##+#+#+###++++....",
"....+%#%#+#%%++=%#+%+%#=%+#%%#+##+=####+#=###+##+#+#++###+##....",
"....+#%%%+%%+++%%=+#+%%#+=%###+++#=####+####++##+#++#+###+#+....",
"....+#%%%+%%+++%#%+%+=%#+#=###=++==#=#++####+####+#+#+###+#+....",
"....###+++##++++##+%+=##+#####=###=#=#+#####+####+#++#+##+##....",
"....###+%%%#++++%%+#+#=#+=#===#=#==##++#####+#####+#+#+##++#...."};
