/* XPM */
static char * e_basement_xpm[] = {
"64 64 17 1",
" 	c None",
".	c #061608",
"+	c #040F06",
"@	c #030B04",
"#	c #081F0C",
"$	c #030A04",
"%	c #020703",
"&	c #FFC20E",
"*	c #B2870A",
"=	c #FF7E00",
"-	c #B25800",
";	c #ED1C24",
">	c #A51419",
",	c #523428",
"'	c #262626",
")	c #010502",
"!	c #010301",
"...+++@++.#####$########$$$$$$###################$$$$$$$$###$###",
"....##.########$####$$$$%++++$$$$#######$$$$$$$$$$.@+++.$$#$$###",
"..#############$#$$$$#++@+##..++%$$###$$$.....+@++@.#####$#$####",
".##############$$$.@++.########.++$##$$.@@+@.++...#######$$#####",
".#############$$$.@.#############..$$$+@.################$$#####",
"#############$$#$.#################$$+@#################$#$$####",
"#############$##$.#################$$++################$$##$####",
"#######$$$$$$$##$$################$$$.###############$$$###$$$##",
"$$$$$$$+.+++.&$$#$##############&$$#$############$$&$$#######$$$",
"#####$$...##&&##$$$$$$$$$$$$$$$&&###$$######$$$$$$#&&###########",
"#####$@%####&*###$$######$$$$$$&*$$$#$$$$$$$$#$$$$$*&###########",
"#####$@####&**####$$##$$$$.+@@&**&+$$$$####$$$++..&**&$$$$$$####",
"$$##$$+####&*=*&###$#$$#+@@##.&*=*&+.$$###$$.+@@+&*=*&@.+@.$$###",
"#$$#$..###&*=-=*##$$$$+%+####&*=-=*.+.$$##$#%+###*=-=*&++#++$$#$",
"##$#$$####&==-;*&#$#$.@.#####&==-;*&#..$$#$.%###&*;-==&####..$#$",
"#$$##$$###*=-;;-&$$#$%+######*=-;;-&##+.$$$.++##&-;;-=*#####$##$",
"$#####$$$&*-;;>-&####$$#####&*-;;>-&##.+.$$%.###&->;;-*&###$$###",
"######$$$**->;--&#####$$####**->;--&###.+.$$$###&--;>-**#$$$####",
"###$$$$.++*->>=&$######$$####*->>=&######$$#$$$$$&=>>-*$$$##$$##",
"##$$#.@...#=,,&+$$$######$$$$$=,,&$$$$$$$$########&,,=#####$$+$#",
"$$%.%+.#####,,#...$$$$######$$$,,$$$$$$#########$$$,,$$####$.+$$",
"$+@++#######,,#######$####$$$#+,,.+...%$#####$$$%++,,..%##$$+.#$",
"$+@+########,,#######$$#$$$.++.,,@++++.#$$$#$$.+++.,,###$#$.+##$",
"$+@.#####''''''''#####$$$#+.''''''''######$$$.+.''''''''$$$+.##$",
"$++######''''''''#####$$$+.#''''''''#######$$.##''''''''$$.+###$",
"$$..########,,#######$$#$+#####,,##########$$%#####,,##$$$+####$",
"#$$#########,,$$$$$$$$##$$#####,,#########$$#$$####,,$$$#$.####$",
"##$$$######$,,###########$$$###,,#####$$$$$###$$$$$,,####$####$$",
"####$$$$$$$%,,$$$$$#######$$$#$,,$$$$$$###$$$$$####,,#####$###$#",
"$$$$#####$#+,,..+@+)$$######$$%,,$####$$$$$+@@+)$$$,,#####$$$$##",
"+@@@)$$##$@@+......++%$$$%)%+..##$$###$#+@+..#.++.$$$#####$$$$$$",
"###.++$$#$@.########.+++++@@######$##$$@+.#######++.$$##$$%@)%%@",
"###.##+#$$@.######################$#$$.%###########++%$$$+%@####",
"#########$@.######################$$$++#############.+$$+@######",
"#########$$$######################$$.@.##############.%$..######",
"#########$#$$#####################$$+).###############$#$#######",
"#######$$$##$$$###############$$$$##$%+.##############$#$$$#####",
"#####$$$######$$$###$$$$$$$$$$$#####$$.##$$$########$$####$$$###",
"$$$$$$##$$$$$$$#$$$$$#########$$$$$$$$$$$##$$$$$$$$$$#######$$$$",
"####$$$$$.+%+@.%$$$$#########$)..+.++@.)$$$#########$$$$$%%#####",
"#$%%%.++++.+++++...%%$$#####$%.+.####.+.+#$$######$$$.+@++.)%$##",
"$$.@@@+@+.############$$$##$)@.############$####$$..@+.....@+%$#",
"$.%....#################$##$.+#############$$##$$%@..#######+.$#",
"%.+######################$#$@+##############$$$$+@###########+%$",
"$+.######################$$$@+###############$$.@#############.%",
"$+.######################$$$$###############$$$++##############$",
"$%.#####################$$##$############$$$##$.+##############$",
"#$$$########$$$$$$$$$$$$#####$$$##$$$$$$$######$$#######$$$###$$",
"###$$$$$$$$$$##$$$$$$$$$$$######$$#####$$$$$$$$$$$$$$$$$##$$$$$#",
"$$$$$########$$$#..+@@+++!$$########$$$.+++)+++.%$$#####$$$$$$##",
")%++$%$#####$#+..@++@+.##++.)$####$$%++%@++.######$####$%.+++%$$",
"##.+++%$####$.++###########..#$##$$.++.###########$##$%$%)+..+++",
"#####.%%$##$.@@###############$$$$.@+#############$#$$.@).######",
"######.+$$#$+@.################$$+@.##############$#$.)+.#######",
"#########$#$%@#################$$++.##############$$$@@#########",
"#########$$$#+#################$$++.###############$$###########",
"##########$$#.#################$$#.################$$###########",
"###########$$#################$$$$#################$#$$$########",
"###########$$$$##############$$##$$$$###########$$$$###$$$$#####",
"#######$$$$$##$$$$$###$$$%%$$$$$$$$$$$$$$$$$$$$$$$$$$$$$$#$$####",
"$$$$$$$$$$$$$$####$$$$$##$$.#+......+#$$###$$$$$$#######$$#$$$$$",
"$$##$$+++@+###$$########$+++@+..####@@..$###$+.##########$####$$",
"#$$#$#.########$$$#####$)%+##############$##$$+##########$##$$$#",
"##$$.+############$###$$)%.###############$##$$$$$$$$$$$$$##$###"};
