/* XPM */
static char * mer_xpm[] = {
"64 64 147 2",
"  	c None",
". 	c #FFFFFF",
"+ 	c #969696",
"@ 	c #2A2A2A",
"# 	c #ADADAD",
"$ 	c #C5C5C5",
"% 	c #8F8F8F",
"& 	c #E8E8E8",
"* 	c #1C1C1C",
"= 	c #FEFEFE",
"- 	c #EEEEEE",
"; 	c #C8C8C8",
"> 	c #B1B1B1",
", 	c #EFEFEF",
"' 	c #555555",
") 	c #CFCFCF",
"! 	c #A9A9A9",
"~ 	c #BBBBBB",
"{ 	c #939393",
"] 	c #868686",
"^ 	c #CECECE",
"/ 	c #C0C0C0",
"( 	c #9B9B9B",
"_ 	c #E7E7E7",
": 	c #474747",
"< 	c #3D3D3D",
"[ 	c #F7F8F8",
"} 	c #EDEEEE",
"| 	c #FCFCFC",
"1 	c #A8A8A8",
"2 	c #ABABAB",
"3 	c #C4C4C4",
"4 	c #8B8B8B",
"5 	c #000000",
"6 	c #C7C7C7",
"7 	c #AEAEAE",
"8 	c #9F9F9F",
"9 	c #F5F5F5",
"0 	c #FDFDFD",
"a 	c #4B4B4B",
"b 	c #7C7C7C",
"c 	c #A7A7A7",
"d 	c #B9B9B9",
"e 	c #F6F6F6",
"f 	c #F9F9F9",
"g 	c #818181",
"h 	c #CDCDCD",
"i 	c #BEBEBE",
"j 	c #979797",
"k 	c #CACACA",
"l 	c #8A8A8A",
"m 	c #E4E4E4",
"n 	c #5D5D5D",
"o 	c #AEA297",
"p 	c #D5D6D8",
"q 	c #6E6E6E",
"r 	c #727272",
"s 	c #959595",
"t 	c #C3C3C3",
"u 	c #626262",
"v 	c #987145",
"w 	c #93683A",
"x 	c #C0BFC0",
"y 	c #636363",
"z 	c #F7F7F7",
"A 	c #535353",
"B 	c #DBDBDB",
"C 	c #898989",
"D 	c #A3A3A3",
"E 	c #E5E5E5",
"F 	c #565656",
"G 	c #8C8C8C",
"H 	c #B4B4B4",
"I 	c #D7D7D7",
"J 	c #A5A5A5",
"K 	c #A6A6A6",
"L 	c #E6E6E6",
"M 	c #6A6A6A",
"N 	c #515151",
"O 	c #EDEDED",
"P 	c #D1D1D1",
"Q 	c #6C6C6C",
"R 	c #4D4D4D",
"S 	c #0D0D0D",
"T 	c #949494",
"U 	c #3B3B3B",
"V 	c #5F5F5F",
"W 	c #D2D2D2",
"X 	c #494949",
"Y 	c #7E7E7E",
"Z 	c #FBFBFB",
"` 	c #E3E3E3",
" .	c #F3F3F3",
"..	c #F1F1F1",
"+.	c #F0F0F0",
"@.	c #FAFAFA",
"#.	c #F2F2F2",
"$.	c #F4F4F4",
"%.	c #060707",
"&.	c #DEDEDE",
"*.	c #B3B3B3",
"=.	c #2E2E2E",
"-.	c #B0B0B0",
";.	c #9D9D9D",
">.	c #DFDFDF",
",.	c #E1E1E1",
"'.	c #DADADA",
").	c #E2E2E2",
"!.	c #AFAFAF",
"~.	c #F8F8F8",
"{.	c #585858",
"].	c #929292",
"^.	c #717171",
"/.	c #E0E0E0",
"(.	c #323232",
"_.	c #CBCBCB",
":.	c #383838",
"<.	c #ECECEC",
"[.	c #8E8E8E",
"}.	c #B8B8B8",
"|.	c #161616",
"1.	c #797979",
"2.	c #656565",
"3.	c #A4A4A4",
"4.	c #222222",
"5.	c #7A7A7A",
"6.	c #BCBCBC",
"7.	c #AAAAAA",
"8.	c #737373",
"9.	c #404040",
"0.	c #CCCCCC",
"a.	c #EBEBEB",
"b.	c #353535",
"c.	c #C9C9C9",
"d.	c #5C5C5C",
"e.	c #C1C1C1",
"f.	c #6D6D6D",
"g.	c #262626",
"h.	c #767676",
"i.	c #696969",
"j.	c #828282",
"k.	c #424242",
"l.	c #A2A2A2",
"m.	c #878787",
"n.	c #838383",
"o.	c #808080",
"p.	c #DCDCDC",
". . . . . . . . . . . . . . . . + @ # $ % & * = @ - % ; > @ @ , ' ) ! ~ { @ @ ~ ] ^ / ( _ : < + . . . . . . . . . . . . . . . . ",
"[ [ [ [ [ [ } [ [ [ [ [ [ [ [ [ | 1 2 3 4 _ 5 = 5 - 4 6 7 8 9 0 a b c d e % ~ f g h i j k l m n [ [ [ [ [ [ } [ [ [ [ [ [ [ [ [ ",
"[ [ [ [ [ [ o o p [ [ [ [ [ [ [ . 2 2 3 4 _ 5 = 5 - 4 6 7 c . . a q r d . s t . g h i j ^ u - - [ [ [ [ [ [ o o p [ [ [ [ [ [ [ ",
"[ [ [ [ [ [ o v w x } [ [ [ [ [ . 2 2 3 4 _ 5 = 5 - 4 6 7 * y . a h 5 d . s t . g h i j z g A B [ [ [ [ [ [ o v w x } [ [ [ [ [ ",
"[ [ [ [ [ p w v v w p [ [ [ [ [ . 2 2 3 4 _ 5 = 5 - C ; 7 D 0 . a E 4 d . s t . g h i j e - d F [ [ [ [ [ p w v v w p [ [ [ [ [ ",
"[ [ [ [ } o v v v w p [ [ [ [ [ . G H 3 4 _ 5 = 5 E A I 7 J . . a E K d . s t . g h i j 6 C L < [ [ [ [ } o v v v w p [ [ [ [ [ ",
"[ [ [ [ o v v v v v v p } [ [ [ M N O P < Q R . 5 S T 0 7 U V E a E K d . s t . ( V F 2 W X Y y [ [ [ [ o v v v v v v p } [ [ [ ",
"[ [ [ [ v o v v v o o v } [ [ [ L Z . . L `  .. E ... . +.E E @._ @., #.. O  .. Z m m | . L ` $.[ [ [ [ v o v v v o o v } [ [ [ ",
"[ [ } p x x p v v p o x p } [ [ . . . . . . . . . . . . . . . . . . . . . . . . . . . . . . . . [ [ } p x x p v v p o x p } [ [ ",
"[ [ p w p %.x v v x %.x w p [ [ . . . . . . . . . . . . . . . . . . . . . . . . . . . . . . . . [ [ p w p %.x v v x %.x w p [ [ ",
"[ [ p v p v x v v p o x v x [ [ . . . . . . . . . . . . . . . . . . . . . . . . . . . . . . . . [ [ p v p v x v v p o x v x [ [ ",
"[ [ x w v x o v v o x v w x } [ . . . . . . . . . . . . . . . . . . . . . . . . . . . . . . . . [ [ x w v x o v v o x v w x } [ ",
"[ o w v v o x x x x o v v v o } ......................................Z . . . . . z ............[ o w v v o x x x x o v v v o } ",
"} w v v v o p } } p v v v v w } < 5 5 5 5 5 5 5 5 5 5 5 5 5 5 5 5 5 5 &.. . . . . *.5 5 5 5 5 =.} w v v v o p } } p v v v v w } ",
"} w v v v w w w w w v v v v o } < 5 5 5 5 5 5 5 5 5 5 5 5 5 5 5 5 5 5 &.. . . . . *.5 5 5 5 5 =.} w v v v w w w w w v v v v o } ",
"[ p o x p p p x o o o o o x } } < 5 5 5 5 5 5 5 5 5 5 5 5 5 5 5 5 5 5 &.. . . . . *.5 5 5 5 5 =.[ p o x p p p x o o o o o x } } ",
"[ } } } } [ } } } } } } } } [ [ < 5 5 5 5 5 5 5 5 5 5 5 5 5 5 5 5 5 5 &.. . . . . *.5 5 5 5 5 =.[ } } } } [ } } } } } } } } [ [ ",
". . . . . . . . . . . . . . . . < 5 5 5 5 5 5 5 5 5 5 5 5 5 5 5 5 5 5 &.. . . . . *.5 5 5 5 5 =.. . . . . . . . . . . . . . . . ",
". . . . . . . . . . . . . . . . H -.-.-.-.-.-.-.-.-.-.-.;.5 5 5 5 5 5 &.. . . . . *.5 5 5 5 5 =.. . . . . . . . . . . . . . . . ",
". . . . . . . . . . . . . . . . . . . . . . . . . . . . E 5 5 5 5 5 5 &.. . . . . *.5 5 5 5 5 =.. . . . . . . . . . . . . . . . ",
". . . . . . . . . . . . . . . . . . . . . . . . . . . . E 5 5 5 5 5 5 &.. . . . . *.5 5 5 5 5 =.. . . . . . . . . . . . . . . . ",
". . . . . . . . . . . . . . . . . . . . . . . . . . . . E 5 5 5 5 5 5 &.. . . . . *.5 5 5 5 5 =.. . . . . . . . . . . . . . . . ",
". . . . . . . . . . . . . . . . . . . . . . . . . . . . E 5 5 5 5 5 5 &.. . . . . *.5 5 5 5 5 =.. . . . . . . . . . . . . . . . ",
". . . . . . . . . . . . . . . . . . . . . . . . . . . . E 5 5 5 5 5 5 &.. . . . . *.5 5 5 5 5 =.. . . . . . . . . . . . . . . . ",
". . . . . . . . . . . . . . . . . . . . . . . . . . . . E 5 5 5 5 5 5 &.. . . . . *.5 5 5 5 5 =.. . . . . . . . . . . . . . . . ",
". . . . . . . . . . . . . . . . . . . . . . . . . . . . E 5 5 5 5 5 5 &.. . . . . *.5 5 5 5 5 =.. . . . . . . . . . . . . . . . ",
". . . . . . . . . . . . . . . . . . . . . . . . . . . . E 5 5 5 5 5 5 &.. . . . . *.5 5 5 5 5 =.. . . . . . . . . . . . . . . . ",
". . . . . . . . . . . . . . . . . . . . . . . . . . . . E 5 5 5 5 5 5 &.. . . . . *.5 5 5 5 5 =.. . . . . . . . . . . . . . . . ",
". . . . . . . . . . . . . . . . . . . . . . . . . . . . E 5 5 5 5 5 5 &.. . . . . *.5 5 5 5 5 =.. . . . . . . . . . . . . . . . ",
". . . . . . . . . . . . . . . . . . . . . . . . . . . . E 5 5 5 5 5 5 &.. . . . . *.5 5 5 5 5 =.. . . . . . . . . . . . . . . . ",
". . . . . . . . . . . . . . . . . . . . . . . . . . . . E 5 5 5 5 5 5 &.. . . . . *.5 5 5 5 5 =.. . . . . . . . . . . . . . . . ",
". . . . . . . . . . . . . . . . . . . . . . . . . . . . E 5 5 5 5 5 5 &.. . . . . *.5 5 5 5 5 =.. . . . . . . . . . . . . . . . ",
". . . . . . . . . . . . . . . . . . . . . . . . . . . . E 5 5 5 5 5 5 &.. . . . . *.5 5 5 5 5 =.. . . . . . . . . . . . . . . . ",
". . . . . . . . . . . . . . . . . . . . . . . . . . . . E 5 5 5 5 5 5 &.. . . . . *.5 5 5 5 5 =.. . . . . . . . . . . . . . . . ",
". . . . . . . . . . . . . . . . . . . . . . . . . . . . E 5 5 5 5 5 5 &.. . . . . *.5 5 5 5 5 =.. . . . . . . . . . . . . . . . ",
". . . . . . . . . . . . . . . . . . . . . . . . . . . . E 5 5 5 5 5 5 &.. . . . . *.5 5 5 5 5 =.. . . . . . . . . . . . . . . . ",
". . . . . . . . . . . . . . . . . . . . . . . . . . . . m 5 5 5 5 5 5 &.. . . . . *.5 5 5 5 5 =.. . . . . . . . . . . . . . . . ",
". . . . . . . . . . . . . . . . . . . . . . . . . . . . m 5 5 5 5 5 5 &.. . . . . *.5 5 5 5 5 =.. . . . . . . . . . . . . . . . ",
". . . . . . . . . . . . . . . . . . . . . . . . . . . . ` 5 5 5 5 5 5 >.. . . . . *.5 5 5 5 5 =.. . . . . . . . . . . . . . . . ",
". . . . . . . . . . . . . . . . . . . . . . . . . . . . ,.5 5 5 5 5 5 >.. . . . . *.5 5 5 5 5 =.. . . . . . . . . . . . . . . . ",
". . . . . . . . . . . . . . . . . . . . . . . . . . . . '.5 5 5 5 5 5 ).. . . . . !.5 5 5 5 5 =.. . . . . . . . . . . . . . . . ",
". . . . . . . . . . . . . . . . . . . . . . . . . . . . ; 5 5 5 5 5 5 & . . . . . 1 5 5 5 5 5 =.. . . . . . . . . . . . . . . . ",
". . . . . . . . . . . . . . . . . . . . . . . . . . . . ! 5 5 5 5 5 5 ~.. . . . . D 5 5 5 5 5 < . . . . . . . . . . . . . . . . ",
". . . . . . . . . . . . . . . . . . . . . . . . . . . 0 {.5 5 5 5 5 R . . . . . . % 5 5 5 5 5 {.. . . . . . . . . . . . . . . . ",
". . . . . . . . . . . . . . . . . . . . . . . . . . . 6 5 5 5 5 5 5 ].. . . . . . M 5 5 5 5 5 ^.. . . . . . . . . . . . . . . . ",
". . . . . . . . . . . . . . . . . . . . . . . . . . /.(.5 5 5 5 5 5 ; . . . . . Z S 5 5 5 5 5 { . . . . . . . . . . . . . . . . ",
". . . . . . . . . . . . . . . . . . . . . . . . . _.(.5 5 5 5 5 5 :.~.. . . . . ,.5 5 5 5 5 5 !.. . . . . . . . . . . . . . . . ",
". . [ [ [ [ [ [ } [ [ [ [ [ [ [ [ [ . . . . . <.[.5 5 5 5 5 5 5 5 ~ . . . . . . }.5 5 5 5 5 5 [ [ [ [ [ [ } [ [ [ [ [ [ [ [ [ . ",
". . [ [ [ [ [ [ o o p [ [ [ [ [ [ [ . . . +.c |.5 5 5 5 5 5 5 5 1.| . . . . . . 2.5 5 5 5 5 5 [ [ [ [ [ [ o o p [ [ [ [ [ [ [ . ",
". . [ [ [ [ [ [ o v w x } [ [ [ [ [ . <.3.4.5 5 5 5 5 5 5 5 5 2. .. . . . . . B 5 5 5 5 5 5 Q [ [ [ [ [ [ o v w x } [ [ [ [ [ . ",
". . [ [ [ [ [ p w v v w p [ [ [ [ [ s S 5 5 5 5 5 5 5 5 5 5 5.$.. . . . . . . 1.5 5 5 5 5 5 6.[ [ [ [ [ p w v v w p [ [ [ [ [ . ",
". . [ [ [ [ } o v v v w p [ [ [ [ [ @ 5 5 5 5 5 5 5 5 5 S !.Z . . . . . . . $ 5 5 5 5 5 5 * #.[ [ [ [ } o v v v w p [ [ [ [ [ . ",
". . [ [ [ [ o v v v v v v p } [ [ [ 7.5 5 5 5 5 5 5 5 8.` . . . . . . . . m =.5 5 5 5 5 5 D . [ [ [ [ o v v v v v v p } [ [ [ . ",
". . [ [ [ [ v o v v v o o v } [ [ [ $.9.5 5 5 5 5 {.0.= . . . . . . . . a.R 5 5 5 5 5 5 b.+.. [ [ [ [ v o v v v o o v } [ [ [ . ",
". . [ [ } p x x p v v p o x p } [ [ . c.5 5 5 d.6 Z . . . . . . . . . ).: 5 5 5 5 5 5 5 e.. . [ [ } p x x p v v p o x p } [ [ . ",
". . [ [ p w p %.x v v x %.x w p [ [ . . + f.0.| . . . . . . . . . . t g.5 5 5 5 5 5 5 4 = . . [ [ p w p %.x v v x %.x w p [ [ . ",
". . [ [ p v p v x v v p o x v x [ [ . . | . . . . . . . . . . . - C 5 5 5 5 5 5 5 5 M e . . . [ [ p v p v x v v p o x v x [ [ . ",
". . [ [ x w v x o v v o x v w x } [ . . . . . . . . . . . . Z d (.5 5 5 5 5 5 5 5 u +.. . . . [ [ x w v x o v v o x v w x } [ . ",
". . [ o w v v o x x x x o v v v o } . . . . . . . . . . = 0.F 5 5 5 5 5 5 5 5 5 h. .. . . . . [ o w v v o x x x x o v v v o } . ",
". . } w v v v o p } } p v v v v w } . . . . . . . . . W i.5 5 5 5 5 5 5 5 5 5 ;.@.. . . . . . } w v v v o p } } p v v v v w } . ",
". . } w v v v w w w w w v v v v o } . . . . . . . @.j.5 5 5 5 5 5 5 5 5 5 k.) . . . . . . . . } w v v v w w w w w v v v v o } . ",
". . [ p o x p p p x o o o o o x } } . . . . . . . . $.l.5 5 5 5 5 5 5 5 8  .. . . . . . . . . [ p o x p p p x o o o o o x } } . ",
". . [ } } } } [ } } } } } } } } [ [ . . . . . . . . . . E m.5 5 5 5 n.` . . . . . . . . . . . [ } } } } [ } } } } } } } } [ [ . ",
". . . . . . . . . . . . . . . . . . . . . . . . . . . . . . &.n.o.p.. . . . . . . . . . . . . . . . . . . . . . . . . . . . . . "};
