/* XPM */
static char * e_stone_xpm[] = {
"64 64 5 1",
" 	c None",
".	c #B4B4B4",
"+	c #7D7D7D",
"@	c #575757",
"#	c #DBDBDB",
"................................................................",
"................................................................",
"................................................................",
"................................................................",
"................................................................",
"..........................................................++....",
".................................++++.....................+@+...",
".....++++++++...................++@@++...................+@.+...",
"...++@@@@@@@@+++................+@@.@@...................+@.++..",
".++@@@..........+++............++@...@+.................+@@..+..",
"++@@@.............++...........+@@....@++...............+@...+..",
"+@@@...............++.........++@.......++..............+@...+..",
".+@@.................++.......+@.........+++............+@..#+..",
".++@..................+.......+@...........++............+..#+..",
"..+@..................++......+@............++...........+.#++..",
"...+@.................#+......+@.............++..........++#+...",
"....++................#+......+@..............++..........+++...",
".....++...............#+......++@..............+................",
"......++.............#++.......+@..............+................",
".......+++###########++........+@..............+................",
".........++++++++++++...........+..............+................",
".................................+............#+................",
".................................++...........#+................",
"..................................++..........#+................",
"...................................++.###...###.................",
".....................................+++####+++.................",
".......................................++++++...................",
"..........................++++++................................",
"+++..................+++++@@@@@@+++............................+",
"@@++................++@@@@@@@.....++........................++++",
"..@+...............++@@@@@.........++......................++@@@",
"...@+..............+@@..............+.....................++@...",
"....++............++@@..............++....................+@....",
".....+............+@@................++...................+@....",
".....+...........++@..................+...................+@....",
".....+.........++@@@..................++..................+@....",
"......+........++@@....................+..................+.....",
"......+.........++@...................#+..................+.....",
".......+.........++.#................#++..................++....",
".......++..........++##########..####++....................++...",
".....#..+............++++++++++##+++++......................+...",
"....#++++.....................++++..........................++..",
"..###+.......................................................+#.",
".#+++........................................................++#",
"#+..........................................+++...............++",
"++..........................................+@++...............+",
"...........................................+@...+...............",
"...........................................+@...++..............",
"..........................................+@.....+..............",
"..........................................+@.....+..............",
".........................................+@......+..............",
".........................................+@....#++..............",
".........................................+@....#+...............",
".........................................+.....#+...............",
"..........................................+##..#+...............",
"..........................................+++##++...............",
"............................................++++................",
"................+++++...........................................",
"..............++@@@@+++.........................................",
"..............@@@.....++........................................",
".............+@.........++......................................",
"............+@@..........++.....................................",
"...........+@@............+.....................................",
"..........++...###########++...................................."};
