/* XPM */
static char * n_basement_xpm[] = {
"64 64 9 1",
" 	c None",
".	c #061608",
"+	c #040F06",
"@	c #030B04",
"#	c #081F0C",
"$	c #030A04",
"%	c #020703",
"&	c #010502",
"*	c #010301",
"...+++@++.#####$########$$$$$$###################$$$$$$$$###$###",
"....##.########$####$$$$%++++$$$$#######$$$$$$$$$$.@+++.$$#$$###",
"..#############$#$$$$#++@+##..++%$$###$$$.....+@++@.#####$#$####",
".##############$$$.@++.########.++$##$$.@@+@.++...#######$$#####",
".#############$$$.@.#############..$$$+@.################$$#####",
"#############$$#$.#################$$+@#################$#$$####",
"#############$##$.#################$$++################$$##$####",
"#######$$$$$$$##$$################$$$.###############$$$###$$$##",
"$$$$$$$+.+++.$$$#$###############$$#$############$$$$$#######$$$",
"#####$$...##..##$$$$$$$$$$$$$$$$$###$$######$$$$$$##############",
"#####$@%#########$$######$$$$$$$$$$$#$$$$$$$$#$$$$$$$###########",
"#####$@###########$$##$$$$.+@@++@@+$$$$####$$$++....$$$$$$$$####",
"$$##$$+############$#$$#+@@##.###.@+.$$###$$.+@@+..@%@@.+@.$$###",
"#$$#$..###########$$$$+%+##########.+.$$##$#%+#######..++#++$$#$",
"##$#$$############$#$.@.#############..$$#$.%##############..$#$",
"#$$##$$#########$$$#$%+###############+.$$$.++##############$##$",
"$#####$$$$$$$$$$$####$$###############.+.$$%.##############$$###",
"######$$$$$$$$$#######$$###############.+.$$$############$$$####",
"###$$$$.++++++&$$######$$################$$#$$$$$$$##$$$$$##$$##",
"##$$#.@...##..++$$$######$$$$$$$$$$$$$$$$$########$$$$#####$$+$#",
"$$%.%+.########...$$$$######$$$$$$$$$$$#########$$$$$$$####$.+$$",
"$+@++################$####$$$#++..+...%$#####$$$%+++...%##$$+.#$",
"$+@+#################$$#$$$.++.+@@++++.#$$$#$$.+++.#####$#$.+##$",
"$+@.##################$$$#+.##############$$$.+.########$$$+.##$",
"$++###################$$$+.################$$.##########$$.+###$",
"$$..#################$$#$+#################$$%#########$$$+####$",
"#$$###########$$$$$$$$##$$################$$#$$####$$$$$#$.####$",
"##$$$######$$$###########$$$##########$$$$$###$$$$$$#####$####$$",
"####$$$$$$$%%$$$$$$#######$$$#$$$$$$$$$###$$$$$###########$###$#",
"$$$$#####$#+....+@+&$$######$$%$$$####$$$$$+@@+&$$$#######$$$$##",
"+@@@&$$##$@@+......++%$$$%&%+..##$$###$#+@+..#.++.$$$#####$$$$$$",
"###.++$$#$@.########.+++++@@######$##$$@+.#######++.$$##$$%@&%%@",
"###.##+#$$@.######################$#$$.%###########++%$$$+%@####",
"#########$@.######################$$$++#############.+$$+@######",
"#########$$$######################$$.@.##############.%$..######",
"#########$#$$#####################$$+&.###############$#$#######",
"#######$$$##$$$###############$$$$##$%+.##############$#$$$#####",
"#####$$$######$$$###$$$$$$$$$$$#####$$.##$$$########$$####$$$###",
"$$$$$$##$$$$$$$#$$$$$#########$$$$$$$$$$$##$$$$$$$$$$#######$$$$",
"####$$$$$.+%+@.%$$$$#########$&..+.++@.&$$$#########$$$$$%%#####",
"#$%%%.++++.+++++...%%$$#####$%.+.####.+.+#$$######$$$.+@++.&%$##",
"$$.@@@+@+.############$$$##$&@.############$####$$..@+.....@+%$#",
"$.%....#################$##$.+#############$$##$$%@..#######+.$#",
"%.+######################$#$@+##############$$$$+@###########+%$",
"$+.######################$$$@+###############$$.@#############.%",
"$+.######################$$$$###############$$$++##############$",
"$%.#####################$$##$############$$$##$.+##############$",
"#$$$########$$$$$$$$$$$$#####$$$##$$$$$$$######$$#######$$$###$$",
"###$$$$$$$$$$##$$$$$$$$$$$######$$#####$$$$$$$$$$$$$$$$$##$$$$$#",
"$$$$$########$$$#..+@@+++*$$########$$$.+++&+++.%$$#####$$$$$$##",
"&%++$%$#####$#+..@++@+.##++.&$####$$%++%@++.######$####$%.+++%$$",
"##.+++%$####$.++###########..#$##$$.++.###########$##$%$%&+..+++",
"#####.%%$##$.@@###############$$$$.@+#############$#$$.@&.######",
"######.+$$#$+@.################$$+@.##############$#$.&+.#######",
"#########$#$%@#################$$++.##############$$$@@#########",
"#########$$$#+#################$$++.###############$$###########",
"##########$$#.#################$$#.################$$###########",
"###########$$#################$$$$#################$#$$$########",
"###########$$$$##############$$##$$$$###########$$$$###$$$$#####",
"#######$$$$$##$$$$$###$$$%%$$$$$$$$$$$$$$$$$$$$$$$$$$$$$$#$$####",
"$$$$$$$$$$$$$$####$$$$$##$$.#+......+#$$###$$$$$$#######$$#$$$$$",
"$$##$$+++@+###$$########$+++@+..####@@..$###$+.##########$####$$",
"#$$#$#.########$$$#####$&%+##############$##$$+##########$##$$$#",
"##$$.+############$###$$&%.###############$##$$$$$$$$$$$$$##$###"};
