/* XPM */
static char * mil_xpm[] = {
"64 64 473 2",
"  	c None",
". 	c #D43535",
"+ 	c #D0D0D0",
"@ 	c #A1A1A1",
"# 	c #9D797B",
"$ 	c #8A1928",
"% 	c #981125",
"& 	c #8B1928",
"* 	c #9E777A",
"= 	c #A0A0A1",
"- 	c #CFCFCF",
"; 	c #ACADAD",
"> 	c #953E45",
", 	c #C20928",
"' 	c #E0012B",
") 	c #E4002B",
"! 	c #E1012B",
"~ 	c #C50828",
"{ 	c #963C43",
"] 	c #AAAAAB",
"^ 	c #BFC0C0",
"/ 	c #943C43",
"( 	c #D30529",
"_ 	c #D7042A",
": 	c #BC0B27",
"< 	c #A90E26",
"[ 	c #971125",
"} 	c #A80E26",
"| 	c #BB0B27",
"1 	c #D5042A",
"2 	c #BEBEBE",
"3 	c #938C8D",
"4 	c #C00A28",
"5 	c #E3002B",
"6 	c #B80B27",
"7 	c #6E1522",
"8 	c #101820",
"9 	c #6A1522",
"0 	c #B40C27",
"a 	c #92898A",
"b 	c #806366",
"c 	c #C90729",
"d 	c #641522",
"e 	c #6F7172",
"f 	c #BEBEBF",
"g 	c #E3E3E3",
"h 	c #FAFAFB",
"i 	c #FFFFFF",
"j 	c #FCFCFC",
"k 	c #E4E4E4",
"l 	c #727374",
"m 	c #601522",
"n 	c #D8042A",
"o 	c #816467",
"p 	c #806467",
"q 	c #A70E26",
"r 	c #0F1820",
"s 	c #636466",
"t 	c #D1D2D2",
"u 	c #EFEFEF",
"v 	c #CCCCCC",
"w 	c #D3D3D3",
"x 	c #F6F6F6",
"y 	c #D4D4D5",
"z 	c #666869",
"A 	c #A40F26",
"B 	c #DA032A",
"C 	c #886467",
"D 	c #866B6E",
"E 	c #9D9E9F",
"F 	c #FAFAFA",
"G 	c #9E9F9F",
"H 	c #2B2F33",
"I 	c #7D7D7F",
"J 	c #3B3E41",
"K 	c #CECECF",
"L 	c #FBFBFB",
"M 	c #A1A2A3",
"N 	c #D7032A",
"O 	c #826668",
"P 	c #9D9798",
"Q 	c #CE0629",
"R 	c #ACACAD",
"S 	c #D6D6D6",
"T 	c #F4F4F4",
"U 	c #AFAFB0",
"V 	c #747577",
"W 	c #F1F1F1",
"X 	c #DDDDDD",
"Y 	c #F9F9F9",
"Z 	c #CECFCF",
"` 	c #B8B8B9",
" .	c #999293",
"..	c #C8C8C9",
"+.	c #AD0D26",
"@.	c #ABABAC",
"#.	c #B8B9B9",
"$.	c #373A3E",
"%.	c #E5E5E6",
"&.	c #D7D7D8",
"*.	c #F2F2F2",
"=.	c #B2B3B3",
"-.	c #C1C1C1",
";.	c #8D3C43",
">.	c #CB0729",
",.	c #0E1820",
"'.	c #959697",
").	c #A2A2A3",
"!.	c #939495",
"~.	c #E7E8E8",
"{.	c #9C9D9E",
"].	c #D8D8D8",
"^.	c #E8E8E8",
"/.	c #9B9C9D",
"(.	c #C60828",
"_.	c #923C43",
":.	c #FB8383",
"<.	c #9E9899",
"[.	c #5C1622",
"}.	c #626365",
"|.	c #F8F8F9",
"1.	c #B1B1B2",
"2.	c #A3A3A4",
"3.	c #2B2F34",
"4.	c #F7F7F7",
"5.	c #3A3D40",
"6.	c #E1E1E1",
"7.	c #FDFDFD",
"8.	c #444649",
"9.	c #B5B5B6",
"0.	c #9A9B9C",
"a.	c #9A9A9B",
"b.	c #646667",
"c.	c #571622",
"d.	c #989192",
"e.	c #E2E2E2",
"f.	c #A30F26",
"g.	c #DCDCDC",
"h.	c #3C3E41",
"i.	c #E7E7E8",
"j.	c #23282D",
"k.	c #D7D7D7",
"l.	c #626465",
"m.	c #ECECEC",
"n.	c #E3E3E4",
"o.	c #585A5C",
"p.	c #C6C6C7",
"q.	c #696B6C",
"r.	c #0C161E",
"s.	c #3E4144",
"t.	c #DEDFDF",
"u.	c #9F1025",
"v.	c #958889",
"w.	c #D8032A",
"x.	c #371721",
"y.	c #B1B2B2",
"z.	c #3C3F42",
"A.	c #4C4E50",
"B.	c #727375",
"C.	c #868788",
"D.	c #FEFEFE",
"E.	c #0D161E",
"F.	c #78797A",
"G.	c #646567",
"H.	c #D3D3D4",
"I.	c #ABACAD",
"J.	c #AAABAB",
"K.	c #909192",
"L.	c #656668",
"M.	c #A2A3A3",
"N.	c #221820",
"O.	c #928384",
"P.	c #971025",
"Q.	c #111921",
"R.	c #3B3D41",
"S.	c #E3E4E4",
"T.	c #9D9D9E",
"U.	c #F1F2F2",
"V.	c #D3D4D4",
"W.	c #DDDDDE",
"X.	c #A3A4A5",
"Y.	c #E1E2E2",
"Z.	c #DADADA",
"`.	c #ADAEAE",
" +	c #262A30",
".+	c #901224",
"++	c #AF0D27",
"@+	c #A29D9E",
"#+	c #DC022A",
"$+	c #2D1720",
"%+	c #B2B2B3",
"&+	c #F0F0F0",
"*+	c #CCCCCD",
"=+	c #B6B7B7",
"-+	c #DFDFDF",
";+	c #616264",
">+	c #A7A7A8",
",+	c #141820",
"'+	c #D9032A",
")+	c #DD022A",
"!+	c #9C9697",
"~+	c #921928",
"{+	c #E9E9E9",
"]+	c #3A3D41",
"^+	c #D0D0D1",
"/+	c #999A9B",
"(+	c #494B4E",
"_+	c #989899",
":+	c #CDCDCE",
"<+	c #F9FAFA",
"[+	c #4E5052",
"}+	c #951125",
"|+	c #C3C3C3",
"1+	c #521621",
"2+	c #808182",
"3+	c #C6C7C7",
"4+	c #424447",
"5+	c #9B1025",
"6+	c #CA0729",
"7+	c #8F1124",
"8+	c #878889",
"9+	c #3B1721",
"0+	c #3D4043",
"a+	c #E0E0E1",
"b+	c #CFCFD0",
"c+	c #898A8B",
"d+	c #491721",
"e+	c #BFBFC0",
"f+	c #918283",
"g+	c #CACBCB",
"h+	c #CBCBCB",
"i+	c #434649",
"j+	c #CF0629",
"k+	c #B60B27",
"l+	c #791423",
"m+	c #C7C7C8",
"n+	c #C40928",
"o+	c #927B7D",
"p+	c #F5F5F6",
"q+	c #949495",
"r+	c #531621",
"s+	c #C10928",
"t+	c #C30928",
"u+	c #561621",
"v+	c #8F9091",
"w+	c #F8F8F8",
"x+	c #22262C",
"y+	c #941125",
"z+	c #9D1025",
"A+	c #D2D2D2",
"B+	c #571621",
"C+	c #87888A",
"D+	c #6D6F70",
"E+	c #141B22",
"F+	c #929293",
"G+	c #C9CACA",
"H+	c #A1A2A2",
"I+	c #DE022A",
"J+	c #626466",
"K+	c #C2C2C3",
"L+	c #D10529",
"M+	c #9B9B9C",
"N+	c #8C6669",
"O+	c #B70B27",
"P+	c #89898A",
"Q+	c #888889",
"R+	c #9C9C9D",
"S+	c #E2E3E3",
"T+	c #B00D27",
"U+	c #8F5B5F",
"V+	c #131B22",
"W+	c #BBBBBC",
"X+	c #FAFBFB",
"Y+	c #717273",
"Z+	c #B9B9BA",
"`+	c #313438",
" @	c #8D1224",
".@	c #B60C27",
"+@	c #6D1522",
"@@	c #505254",
"#@	c #E8E9E9",
"$@	c #151C24",
"%@	c #535456",
"&@	c #631522",
"*@	c #CACACB",
"=@	c #C3C4C4",
"-@	c #D4042A",
";@	c #F2F2F3",
">@	c #0C161F",
",@	c #CF0529",
"'@	c #DF012B",
")@	c #969798",
"!@	c #CC0729",
"~@	c #7F1323",
"{@	c #979899",
"]@	c #C40828",
"^@	c #8D8B8C",
"/@	c #9A7D7F",
"(@	c #B30C27",
"_@	c #D4D4D4",
":@	c #A37E80",
"<@	c #997174",
"[@	c #F3F3F3",
"}@	c #B10C27",
"|@	c #834E53",
"1@	c #71202B",
"2@	c #A40E26",
"3@	c #2F1720",
"4@	c #5A1622",
"5@	c #721423",
"6@	c #851224",
"7@	c #6F1522",
"8@	c #7C1323",
"9@	c #8E1124",
"0@	c #911224",
"a@	c #581622",
"b@	c #311721",
"c@	c #C0C0C1",
"d@	c #7F8081",
"e@	c #656768",
"f@	c #131A22",
"g@	c #861224",
"h@	c #987073",
"i@	c #824C51",
"j@	c #801323",
"k@	c #8D8A8B",
"l@	c #0A141D",
"m@	c #0C1820",
"n@	c #651522",
"o@	c #1D2329",
"p@	c #525456",
"q@	c #621522",
"r@	c #D9D9DA",
"s@	c #09131D",
"t@	c #727475",
"u@	c #B9BABA",
"v@	c #2E3135",
"w@	c #8B6669",
"x@	c #9FA0A1",
"y@	c #8F595D",
"z@	c #E1002B",
"A@	c #88898A",
"B@	c #F2F3F3",
"C@	c #C1C2C2",
"D@	c #D00529",
"E@	c #D1D1D1",
"F@	c #6A6B6D",
"G@	c #7A1423",
"H@	c #CD0629",
"I@	c #1C2228",
"J@	c #636566",
"K@	c #481721",
"L@	c #C8C8C8",
"M@	c #9A1025",
"N@	c #0C151E",
"O@	c #F5F6F6",
"P@	c #8E8E8F",
"Q@	c #23272D",
"R@	c #911125",
"S@	c #908283",
"T@	c #CBCBCC",
"U@	c #3F4145",
"V@	c #801324",
"W@	c #C3C3C4",
"X@	c #CDCECE",
"Y@	c #90797B",
"Z@	c #4D1621",
"`@	c #818283",
" #	c #3D3F43",
".#	c #441721",
"+#	c #B0B1B1",
"@#	c #8A8B8C",
"##	c #901124",
"$#	c #A60F26",
"%#	c #EAEAEA",
"&#	c #F9F9FA",
"*#	c #CDCDCD",
"=#	c #949596",
"-#	c #434548",
";#	c #111820",
">#	c #391721",
",#	c #414346",
"'#	c #A10F25",
")#	c #A19D9E",
"!#	c #DB032A",
"~#	c #231820",
"{#	c #9F9FA0",
"]#	c #DCDCDD",
"^#	c #DEDEDF",
"/#	c #EBEBEB",
"(#	c #F0F1F1",
"_#	c #A9A9AA",
":#	c #9A9495",
"<#	c #931125",
"[#	c #121A21",
"}#	c #D7D8D8",
"|#	c #7D7E7F",
"1#	c #B4B5B5",
"2#	c #AF0D26",
"3#	c #948889",
"4#	c #D6042A",
"5#	c #301720",
"6#	c #9A9B9B",
"7#	c #AEAEAF",
"8#	c #A4A5A6",
"9#	c #0E171F",
"0#	c #ECECED",
"a#	c #D4D5D5",
"b#	c #3E4044",
"c#	c #F7F8F8",
"d#	c #A2A3A4",
"e#	c #191820",
"f#	c #8E7E80",
"g#	c #424448",
"h#	c #7E7F81",
"i#	c #0F171F",
"j#	c #BEBFBF",
"k#	c #535557",
"l#	c #8D8E8F",
"m#	c #DEDEDE",
"n#	c #9E1025",
"o#	c #606264",
"p#	c #E5E6E6",
"q#	c #6B6C6E",
"r#	c #D5D5D6",
"s#	c #555759",
"t#	c #747677",
"u#	c #999A9A",
"v#	c #BDBDBE",
"w#	c #948E8F",
"x#	c #C80729",
"y#	c #D9D9D9",
"z#	c #3C3E42",
"A#	c #D2D3D3",
"B#	c #BABBBB",
"C#	c #707173",
"D#	c #4D4F51",
"E#	c #BFBFBF",
"F#	c #933E45",
"G#	c #F89D9D",
"H#	c #AA0E26",
"I#	c #EFEFF0",
"J#	c #919293",
"K#	c #7F8082",
"L#	c #B3B3B4",
"M#	c #ADADAE",
"N#	c #969091",
"O#	c #856A6C",
"P#	c #9E9FA0",
"Q#	c #E2002B",
"R#	c #A50F26",
"S#	c #D5D5D5",
"T#	c #DADADB",
"U#	c #A00F25",
"V#	c #737475",
"W#	c #C0C1C1",
"X#	c #E8E8E9",
"Y#	c #767779",
"Z#	c #5B1622",
"`#	c #918A8B",
" $	c #681522",
".$	c #B10D27",
"+$	c #908788",
"@$	c #933C43",
"#$	c #A20F26",
"$$	c #BCBDBD",
"%$	c #953C43",
"&$	c #94363E",
"*$	c #A5A5A5",
"=$	c #FD5F5F",
"-$	c #9C777A",
";$	c #9D7679",
">$	c #9F9E9F",
". . . . . . . . . . . . . . . . . . . . . . . . . . . + @ # $ % & * = - . . . . . . . . . . . . . . . . . . . . . . . . . . . . ",
". . . . . . . . . . . . . . . . . . . . . . . . . ; > , ' ) ) ) ) ) ! ~ { ] . . . . . . . . . . . . . . . . . . . . . . . . . . ",
". . . . . . . . . . . . . . . . . . . . . . . ^ / ( ) ) _ : < [ } | _ ) ) 1 > 2 . . . . . . . . . . . . . . . . . . . . . . . . ",
". . . . . . . . . . . . . . . . . . . . . . 3 4 ) 5 6 7 8 8 8 8 8 8 8 9 0 ! ) , a . . . . . . . . . . . . . . . . . . . . . . . ",
". . . . . . . . . . . . . . . . . . . . . b _ ) c d 8 e f g h i j k ^ l 8 m ~ ) n o . . . . . . . . . . . . . . . . . . . . . . ",
". . . . . . . . . . . . . . . . . . . . p _ ) q r s t i i i u v w x i i y z 8 A ) B C . . . . . . . . . . . . . . . . . . . . . ",
". . . . . . . . . . . . . . . . . . . D n ) % 8 E F i i F G H I l J K i i L M 8 [ 5 N O . . . . . . . . . . . . . . . . . . . . ",
". . . . . . . . . . . . . . . . . . P Q ) % 8 R i S T i U V W i i X u i Y Z i ` 8 % ) (  .. . . . . . . . . . . . . . . . . . . ",
". . . . . . . . . . . . . . . . . ..0 ) +.8 @.i #.8 v j $.%.i i i i i i &.8 *.i =.8 } ) | -.. . . . . . . . . . . . . . . . . . ",
". . . . . . . . . . . . . . . . . ;.) >.,.'.i x J ).!.~.8 i i i i i i i {.8 ].^.W /.8 (.) _.:.. . . . . . . . . . . . . . . . . ",
". . . . . . . . . . . . . . . . <._ ' [.}.|.i 1.2.u 3.4.5.6.i i i i i 7.8.V 9.0.a.L b.c.' B d.. . . . . . . . . . . . . . . . . ",
". . . . . . . . . . . . . . . e.A ) f.8 g.i x h.i.y j.k.` l.m.i i y n.g.o.p.q.r.s.7.t.8 u.) +.6.. . . . . . . . . . . . . . . . ",
". . . . . . . . . . . . . . . v.' w.x.0.i i y.z.A.B.C.G D.y.E.F.G.A.H.I.J.e.8 K.L.g.i M.N.( ' O.. . . . . . . . . . . . . . . . ",
". . . . . . . . . . . . . . e.} ) P.Q.m.i x R.] S.i %.T.i i U.V.W.F i X.Y.Y 8 Z.` `.i u  +.+) ++e.. . . . . . . . . . . . . . . ",
". . . . . . . . . . . . . . @+#+#+$+2.i i %+2.i i i i i &+g *+v v e.u i i i =+i -+;+i i >+,+'+)+!+. . . . . . . . . . . . . . . ",
". . . . . . . . . . . . . . ~+) q 8 {+i x ]+m.i F ^+/+(+,.$+8 8 s z 8 8._+:+<+i i [+{+i m.8 f.) }+. . . . . . . . . . . . . . . ",
". . . . . . . . . . . . . |+(.) 1+2+i i 3+X x y.4+8 5+6+5 7+8 8 v i j e.8+9+0+%+x a+b+i i c+d+) >.e+. . . . . . . . . . . . . . ",
". . . . . . . . . . . . . f+) (.8 g+i i F h+i+8 8 8 j+) ) 7+8 8 v i i i ] k+6+l+0+m+i i i :+8 n+) o+. . . . . . . . . . . . . . ",
". . . . . . . . . . . . . % ) 5+E.p+i F q+r+s+8 8 8 j+) ) 7+8 8 v i i i ] k+) ) t+u+v+Y i w+x+y+) z+. . . . . . . . . . . . . . ",
". . . . . . . . . . . . A+s+) B+C+i W D+l+#+) 8 8 8 j+) ) 7+8 8 v i i i ] k+) ) ) >.E+b.W i F+d+) n+G+. . . . . . . . . . . . . ",
". . . . . . . . . . . . H+I+1 8 f w+G.8 ' ) ) 8 8 8 j+) ) 7+8 8 v i i i ] k+) ) ) j+8+@.J+*.K+8 L+! M+. . . . . . . . . . . . . ",
". . . . . . . . . . . . N+) O+8 e.P+8 8 ) ) ) 8 8 8 j+) ) 7+8 8 v i i i ] k+) ) ) j+Q+i R+C.S+8 T+) U+. . . . . . . . . . . . . ",
". . . . . . . . . . . . [ ) y+V+W+8 8 8 ) ) ) 8 8 8 j+) ) 7+8 8 v i i i ] k+) ) ) j+Q+i X+Y+Z+`+ @) z+. . . . . . . . . . . . . ",
". . . . . . . . . . . -+.@) +@@@5.8 8 8 ) ) ) 8 8 8 j+) ) 7+8 8 v i i i ] k+) ) ) j+Q+i i #@$@%@&@) O+Z.. . . . . . . . . . . . ",
". . . . . . . . . . . *@>.) 8 8 d 8 8 8 ) ) ) 8 8 8 j+) ) 7+8 8 v i i i ] k+) ) ) j+Q+i i i @.8 8 ) Q =@. . . . . . . . . . . . ",
". . . . . . . . . . . @.B -@8 8 | 8 8 8 ) ) ) 8 8 8 j+) ) 7+8 8 v i i i ] k+) ) ) j+Q+i i i ;@>@8 ,@'@J.. . . . . . . . . . . . ",
". . . . . . . . . . . )@) !@8 ~@j+8 8 8 ) ) ) 8 8 8 j+) ) 7+8 8 v i i i ] k+) ) ) j+Q+i i i i {@8 ]@) ^@. . . . . . . . . . . . ",
". . . . . . . . . . . /@) .@8 (@j+8 8 8 ) ) ) 8 8 8 j+) ) 7+8 8 v i i i ] k+) ) ) j+Q+i i i i _@8 .@) :@. . . . . . . . . . . . ",
". . . . . . . . . . . <@) .@8 -@j+8 8 8 ) ) ) 8 8 8 j+) ) 7+8 8 v i i i ] k+) ) ) j+Q+i i i i [@8 }@) |@. . . . . . . . . . . . ",
". . . . . . . . . . . 1@) 2@3@) j+8 8 8 ) ) ) 8 8 8 j+) ) 7+8 8 4@5@5@5@5@s+) ) ) ( 5@5@5@5@5@5@x.% ) 6@. . . . . . . . . . . . ",
". . . . . . . . . . .  @) % 7@) j+8 8 8 ) ) ) 8 8 8 j+) ) 7+8 8 .@) ) ) ) ) ) ) ) ) ) ) ) ) ) ) 7@% ) % . . . . . . . . . . . . ",
". . . . . . . . . . . }+) % 7@) j+8 8 8 ) ) ) 8 8 8 j+) ) 7+8 8 .@) ) ) ) ) ) ) ) ) ) ) ) ) ) ) 8@% ) % . . . . . . . . . . . . ",
". . . . . . . . . . . }+) % 7@) j+8 8 8 ) ) ) 8 8 8 j+) ) 7+8 8 .@) ) ) ) ) ) ) ) ) ) ) ) ) ) ) ~@% ) % . . . . . . . . . . . . ",
". . . . . . . . . . . 9@) % 7@) j+8 8 8 ) ) ) 8 8 8 j+) ) 7+8 8 0@.@.@.@.@( ) ) ) #+.@.@.@.@.@.@a@% ) % . . . . . . . . . . . . ",
". . . . . . . . . . . 1@) f.b@) j+8 8 8 ) ) ) 8 8 8 j+) ) 7+8 8 /+c@c@c@d@k+) ) ) j+e@c@c@c@c@c@f@[ ) g@. . . . . . . . . . . . ",
". . . . . . . . . . . h@) .@8 1 j+8 8 8 ) ) ) 8 8 8 j+) ) 7+8 8 v i i i ] k+) ) ) j+Q+i i i i *.8 T+) i@. . . . . . . . . . . . ",
". . . . . . . . . . . /@) .@8 0 j+8 8 8 ) ) ) 8 8 8 j+) ) 7+8 8 v i i i ] k+) ) ) j+Q+i i i i H.8 .@) :@. . . . . . . . . . . . ",
". . . . . . . . . . . )@) >.8 j@j+8 8 8 ) ) ) 8 8 8 j+) ) 7+8 8 v i i i ] k+) ) ) j+Q+i i i i '.8 ]@) k@. . . . . . . . . . . . ",
". . . . . . . . . . . J.B -@8 8 : 8 8 8 ) ) ) 8 8 8 j+) ) 7+8 8 v i i i ] k+) ) ) j+Q+i i i W l@8 j+'@J.. . . . . . . . . . . . ",
". . . . . . . . . . . *@>.) m@8 n@8 8 8 ) ) ) 8 8 8 j+) ) 7+8 8 v i i i ] k+) ) ) j+Q+i i i J.8 8 ) Q |+. . . . . . . . . . . . ",
". . . . . . . . . . . -+.@) +@@@0+8 8 8 ) ) ) 8 8 8 j+) ) 7+8 8 v i i i ] k+) ) ) j+Q+i i {+o@p@q@) O+r@. . . . . . . . . . . . ",
". . . . . . . . . . . . [ ) y+s@Z+8 8 8 ) ) ) 8 8 8 j+) ) 7+8 8 v i i i ] k+) ) ) j+Q+i X+t@u@v@ @) z+. . . . . . . . . . . . . ",
". . . . . . . . . . . . w@) 0 8 6.c+8 8 ) ) ) 8 8 8 j+) ) 7+8 8 v i i i ] k+) ) ) j+Q+i x@C.e.8 T+) y@. . . . . . . . . . . . . ",
". . . . . . . . . . . . H+I+-@8 2 w+G.8 z@) ) 8 8 8 j+) ) 7+8 8 v i i i ] k+) ) ) j+A@J.J+B@C@8 D@! M+. . . . . . . . . . . . . ",
". . . . . . . . . . . . E@s+) u+8+i W F@G@)+) 8 8 8 j+) ) 7+8 8 v i i i ] k+) ) ) H@I@J@W i F+K@) n+L@. . . . . . . . . . . . . ",
". . . . . . . . . . . . . % ) M@N@O@i F F+u+n+8 8 8 j+) ) 7+8 8 v i i i ] k+) ) ~ a@P@w+i w+Q@R@) z+. . . . . . . . . . . . . . ",
". . . . . . . . . . . . . S@) ~ 8 T@i i i G+U@8 8 8 j+) ) 7+8 8 v i i i ] k+6+V@J W@i i i X@8 n+) Y@. . . . . . . . . . . . . . ",
". . . . . . . . . . . . . K+~ ) Z@`@i i i i x %+ #8 z+>.) 7+8 8 v i D.S+8+.#z.+#x i i i i @#d+5 6+e+. . . . . . . . . . . . . . ",
". . . . . . . . . . . . . . ##) $#8 %#i i i i i &#*#=#-#;#>#8 8 s Y+E.,#F+v w+i i i i i m.8 '#) }+. . . . . . . . . . . . . . . ",
". . . . . . . . . . . . . . )##+!#~#M.i i i W g {#]#i i m.^#v v v X /#i F e+1.(#i i i i _#;#N )+:#. . . . . . . . . . . . . . . ",
". . . . . . . . . . . . . . e.} ) <#[#m.i i }#Y+8 k &+c+|#T@i x Z+] ~.i @#y.1#}.L i i u 3.0@) 2#6.. . . . . . . . . . . . . . . ",
". . . . . . . . . . . . . . . 3#' 4#5#6#i i i *+J@i 7#8#x 9#0#F+Z+a#b#c#0+/#4.8 :+i i d#e#( ' f#. . . . . . . . . . . . . . . . ",
". . . . . . . . . . . . . . . e.A ) '#8 g.i i K.Z+i m+g#a.8+j h#r@L i#g.j#k#l l#J.i m#8 n#) +.-+. . . . . . . . . . . . . . . . ",
". . . . . . . . . . . . . . . . <._ ' 4@o#w+T 8 /#W 8 p#e+q#i r#s#t#s#v i T j u#v#L J@1+' B w#. . . . . . . . . . . . . . . . . ",
". . . . . . . . . . . . . . . . . ;.) x#,.=#F y#i x z#A#B#C#i U.S.&+D#u i E#|#y.F 0.8 ~ ) F#G#. . . . . . . . . . . . . . . . . ",
". . . . . . . . . . . . . . . . . m+0 ) H#8 @.i i i {+1.7#I#i W J#K#t i i i i i L#8 $#) | ^ . . . . . . . . . . . . . . . . . . ",
". . . . . . . . . . . . . . . . . . !+Q ) % 8 M#i i i i i i i i i i i i i i i W+8 }+) ( N#. . . . . . . . . . . . . . . . . . . ",
". . . . . . . . . . . . . . . . . . . O#n ) % 8 P#L i i i i i i i i i i i L d#8 ##Q#N o . . . . . . . . . . . . . . . . . . . . ",
". . . . . . . . . . . . . . . . . . . . p _ ) R#8 G.S#i i i i i i i i i T#q.8 U#) B C . . . . . . . . . . . . . . . . . . . . . ",
". . . . . . . . . . . . . . . . . . . . . b _ ) ~ m 8 V#W#^.D.i D.X#K+Y#8 Z#n+) n o . . . . . . . . . . . . . . . . . . . . . . ",
". . . . . . . . . . . . . . . . . . . . . . `#4 ) ! 0  $8 8 8 8 8 8 8 n@.$' ) , +$. . . . . . . . . . . . . . . . . . . . . . . ",
". . . . . . . . . . . . . . . . . . . . . . . e+@$( ) ) 4#6 f.% #$O+1 ) ) 1 > $$. . . . . . . . . . . . . . . . . . . . . . . . ",
". . . . . . . . . . . . . . . . . . . . . . . . . @.%$, ' ) ) ) ) ) ! ~ &$*$=$. . . . . . . . . . . . . . . . . . . . . . . . . ",
". . . . . . . . . . . . . . . . . . . . . . . . . . . b+@ -$$ % & ;$>$K . . . . . . . . . . . . . . . . . . . . . . . . . . . . "};
