/* XPM */
static char * open_door_xpm[] = {
"10 10 4 1",
" 	c None",
".	c #B4B4B4",
"+	c #575757",
"@	c #7D7D7D",
"..........",
"..........",
"..........",
"..........",
".......++@",
"..........",
"..........",
"..........",
"..........",
".........."};
