/* XPM */
static char * player_xpm[] = {
"10 10 3 1",
" 	c None",
".	c #B3F0FF",
"+	c #ED1C24",
"..........",
"..........",
"....++....",
"...++++...",
"..++++++..",
"..++++++..",
"...++++...",
"....++....",
"..........",
".........."};
