/* XPM */
static char * s_basement_xpm[] = {
"64 64 19 1",
" 	c None",
".	c #061608",
"+	c #040F06",
"@	c #030B04",
"#	c #081F0C",
"$	c #030A04",
"%	c #020703",
"&	c #BECCC0",
"*	c #858E86",
"=	c #BFCDBF",
"-	c #BFCDC0",
";	c #BECCC1",
">	c #010502",
",	c #BECBC0",
"'	c #000000",
")	c #BECDC0",
"!	c #BFCCC1",
"~	c #BDCCC0",
"{	c #010301",
"...+++@++.#####$########$$$$$$###################$$$$$$$$###$###",
"....##.########$####$$$$%++++$$$$#######$$$$$$$$$$.@+++.$$#$$###",
"..#############$#$$$$#++@+##..++%$$###$$$.....+@++@.#####$#$####",
".##############$$$.@++.########.++$##$$.@@+@.++...#######$$#####",
".#############$$$.@.#############..$$$+@.################$$#####",
"#############$$#$.#################$$+@#################$#$$####",
"######&######$##$.################&$$++################$$##$####",
"######&&&&$$$$##$$#############&&&&$$.###############$$$###$$$##",
"$$$$$$$&.&&&&$$$#$#########&&&&&#&&#$############$$$$$#######$$$",
"#####$$&&.##***************$$$$&$&##$$######$$$$$$##############",
"#####$@&#&###****$$**####$$$$%*$$&$$#$$$$$$$$#$$$$$$$###########",
"#####$@#&#&#&#####$$#****$.+@*++&&+$$$$####$$$++....$$$$$$$$####",
"$$##$$+#&##&#######$*$$#+****.##&.@+.$$###$$.+@@+..@%@@.+@.$$###",
"#$$#$..#&&&#&###****%$+%+*##*##&&##.+.$$##$#%+#######..++#++$$#$",
"##$#$$###&##&#&&##$#&&&.&#*##&&&#####..$$#$.%##############..$#$",
"#$$##$$##&###&#&$$$&$%+&##*###&#######+.$$$.++######=#######$##$",
"$#####$$$&$$$&$$&##&#$$#&#*##&&#######.+.$$%.#######-######$$###",
"######$$$&$$*$$&#&&##&&&#&#*#&#########.+.$$$#######&;###$$$####",
"###$$$$.+&++*+>&$#&&&#&$$&#*#&###########$$#$$$$$&&#&$$$$$##$$##",
"##$$#.@..&##*.+&$&$#&#&##&$*$&$$$$$$$$$$$$######&#$$&$#####$$+$#",
"$$%.%+.##&**###&&.$$$&##&&#*$&$$$$$$$$$########&&$&$$$$####$.+$$",
"$+@++####&*.&#&##&&&&$&&##$*$&++..+...%$#####$&&%&&+*..%##$$+.#$",
"$+@+#####&*##&#######$&&$$&*+&.+@@++++.#$$$#&&.+++.##*##$#$.+##$",
"$+@.####&#*###**####&&$&$&+*#&##########&&$&*.+.&&###*##$$$+.##$",
"$++#####&##*#*##**#&##$$*+.&#&#######,&#&##***##&#####*#$$.+###$",
"$$..####&###**####*##***$*#&#&#######&#####$'%####&*##**$$+####$",
"#$$####&&#####*$$$*$*$##$$*&#&#########&##**#&$&&&#$*$$*#$.####$",
"##$$$##&###$********#####&&$&&########$&&**#*#&&$&$&**#**$####$$",
"####$$&&$&&&%$%%%%$#&&&&&#$$$&&$$$$$$$$##*$$$*$&#&&&#'#**#$###$#",
"$$$$##&&&$#+....+@+>$$##&&&#$$&$$$####$$$'*+*@&&$$$#####**$$$$##",
"+@@@>$$##$@@+......++%$$$%>&&.&##$$###$#+'***#.&+&&&$&###*$&$$$$",
"###.++$$#$@.########.+++++@@&&&###$##$$@+.#*#&&&&++&&$***$%&>%%@",
"###.##+#$$@.#################&&###$#$$.%####*###&##++%$$*+%@&###",
"#########$@.######################$$$++####&#*##&#&&&+$$*@*#&&)#",
"#########$$$######################$$.@.#####&#**##&**.%$..#&#&&#",
"#########$#$$#####################$$+>.#####&##*#**##&&&&&&&&&&!",
"#######$$$##$$$###############$$$$##$%+.####&&&*&*##&&$&$&$#####",
"#####$$$######$$$###$$$$$$$$$$$#####$$.##$$$&#####&&$$####$$$###",
"$$$$$$##$$$$$$$#$$$$$#########$$$$$$$!$$$##$$$$&&&$$$#######$$$$",
"####$$$$$.+%+@.%$$$$#########$>..+.)&&.>$$$####&&###$$$$$%%#####",
"#$%%%.++++.+++++...%%$$#####$%.+.##&&&+.+#$$#&#&##$$$.+@++.>%$##",
"$$.@@@+@+.############$$$##$>@.###&&#&#####$~&&#$$..@+.....@+%$#",
"$.%....#################$##$.+##&&##&&#####$;##$$%@..#######+.$#",
"%.+######################$#$@+#####*#&######$$$$+@###########+%$",
"$+.######################$$$@+#**####&&######$$.@#############.%",
"$+.######################$$$$***#***#&######$$$++##############$",
"$%.#####################$$#****##*###&&##$$$##$.+##############$",
"#$$$########$$$$$$$$$$$$##**#$$$#*$$$&$$$######$$#######$$$###$$",
"###$$$$$$$$$$##$$$$;$$$$**###*'#&$###&&$$$$$$$$$$$$$$$$$##$$$$$#",
"$$$$$########$$$#=-&&&+*+{$$**###&#&*$&.+++>+++.%$$#####$$$$$$##",
">%++$%$#####$#+..@++@+.##++*>&&#&&$&*++&@++.######$####$%.+++%$$",
"##.+++%$####$.++####&#&&###&.#&#&$$&&*.&##########$##$%$%>+..+++",
"#####.%%$##$.@@#####&##&#&##&&&$&$.@+**#&#########$#$$.@>.######",
"######.+$$#$+@.######&&##&&#&##$$&&&##&#&&########$#$.>+.#######",
"#########$#$%@########&&####&&&&&&+.***#&&&#######$$$@@#########",
"#########$$$#+#########&#####&#&$&+.*#&####&#######$$###########",
"##########$$#.##########&#*#&#*$$&.*##&###&&#######$$###########",
"###########$$###########&**'#*$**$*#&&&&###~;######$#$$$########",
"###########$$$$##########&*#*$$#**$&$###########$$$$###$$$$#####",
"#######$$$$$##$$$$$###$$$%%$**$**$$$$$$$$$$$$$$$$$$$$$$$$#$$####",
"$$$$$$$$$$$$$$####$$$$$##&$.#**''...+#$$###$$$$$$#######$$#$$$$$",
"$$##$$+++@+###$$########$&&+@&..####@@..$###$+.##########$####$$",
"#$$#$#.########$$$#####$>%+#&&###########$##$$+##########$##$$$#",
"##$$.+############$###$$>%&###############$##$$$$$$$$$$$$$##$###"};
