/* XPM */
static char * nap_xpm[] = {
"64 64 195 2",
"  	c None",
". 	c #00EBFF",
"+ 	c #003E81",
"@ 	c #00EAFE",
"# 	c #00E9FD",
"$ 	c #516794",
"% 	c #9099B3",
"& 	c #A8AFC1",
"* 	c #B4BACA",
"= 	c #BAC0CF",
"- 	c #2B4D87",
"; 	c #949DB5",
"> 	c #CDD1DB",
", 	c #F2F4F6",
"' 	c #EAF3F9",
") 	c #D5E6F3",
"! 	c #BDD8ED",
"~ 	c #AFD0E9",
"{ 	c #A8CDE8",
"] 	c #CED2DB",
"^ 	c #959EB6",
"/ 	c #2A4D87",
"( 	c #546895",
"_ 	c #C0C5D2",
": 	c #F2F5F8",
"< 	c #D4E5F3",
"[ 	c #9CC7E5",
"} 	c #4CA9DA",
"| 	c #179FD6",
"1 	c #199FD6",
"2 	c #189FD6",
"3 	c #9BC6E5",
"4 	c #D4E5F2",
"5 	c #C1C5D2",
"6 	c #556995",
"7 	c #3C578C",
"8 	c #BFC4D1",
"9 	c #F2F6FA",
"0 	c #B7D5EB",
"a 	c #4CA8D9",
"b 	c #B6D5EB",
"c 	c #F1F6FA",
"d 	c #BFC4D2",
"e 	c #8D97B1",
"f 	c #EFF2F5",
"g 	c #C0DAED",
"h 	c #44A6D9",
"i 	c #43A6D9",
"j 	c #BFD9ED",
"k 	c #F0F2F5",
"l 	c #8D98B2",
"m 	c #114383",
"n 	c #BFC5D2",
"o 	c #E9F2F9",
"p 	c #75B6DE",
"q 	c #74B5DE",
"r 	c #304F88",
"s 	c #D8DBE3",
"t 	c #D2E4F2",
"u 	c #3BA4D8",
"v 	c #3AA4D8",
"w 	c #D9DCE4",
"x 	c #305088",
"y 	c #DFE1E8",
"z 	c #C2DBEE",
"A 	c #1B9FD6",
"B 	c #C1DBEE",
"C 	c #DFE2E8",
"D 	c #315088",
"E 	c #D8DCE3",
"F 	c #159FD6",
"G 	c #1C9FD6",
"H 	c #37A4D8",
"I 	c #A9CDE8",
"J 	c #4FA9DA",
"K 	c #2CA1D7",
"L 	c #56ABDB",
"M 	c #3DA6D9",
"N 	c #DCEAF5",
"O 	c #FFFFFF",
"P 	c #DFECF6",
"Q 	c #2CA2D7",
"R 	c #31A2D7",
"S 	c #CBE0F0",
"T 	c #E8F1F8",
"U 	c #F5F9FC",
"V 	c #63B0DC",
"W 	c #B4D4EB",
"X 	c #C6DDEF",
"Y 	c #169FD6",
"Z 	c #97C5E5",
"` 	c #FEFEFF",
" .	c #DDEAF5",
"..	c #3CA5D8",
"+.	c #A6CCE7",
"@.	c #D8E7F4",
"#.	c #91C1E3",
"$.	c #1CA0D6",
"%.	c #EEF5FA",
"&.	c #FCFDFE",
"*.	c #83BBE1",
"=.	c #B8D5EC",
"-.	c #7EB9E0",
";.	c #4CA9D9",
">.	c #E9F1F8",
",.	c #F3F8FC",
"'.	c #5DADDB",
").	c #B3D2EA",
"!.	c #7DB9E0",
"~.	c #2A4C87",
"{.	c #949EB6",
"].	c #F4F8FC",
"^.	c #E6F0F8",
"/.	c #ECF3F9",
"(.	c #80BAE0",
"_.	c #D0E3F2",
":.	c #4BA9DA",
"<.	c #A3CAE7",
"[.	c #B2D2EA",
"}.	c #F2F3F6",
"|.	c #8EC0E3",
"1.	c #516694",
"2.	c #909AB3",
"3.	c #22A0D7",
"4.	c #DBEAF5",
"5.	c #F7FAFD",
"6.	c #69B1DD",
"7.	c #8F99B2",
"8.	c #48A7D9",
"9.	c #ECF4FA",
"0.	c #EBF3F9",
"a.	c #42A6D8",
"b.	c #6CB2DD",
"c.	c #F7FBFD",
"d.	c #D8E8F4",
"e.	c #1FA0D6",
"f.	c #B0D0E9",
"g.	c #8FC1E3",
"h.	c #FDFEFF",
"i.	c #BCD8ED",
"j.	c #B9C0CF",
"k.	c #B0D1EA",
"l.	c #9AC6E5",
"m.	c #CEE2F1",
"n.	c #FAFCFE",
"o.	c #34A3D7",
"p.	c #E3EEF7",
"q.	c #F0F6FB",
"r.	c #C0D9ED",
"s.	c #58ACDB",
"t.	c #F1F7FB",
"u.	c #7BB8DF",
"v.	c #506694",
"w.	c #9DC8E6",
"x.	c #4DA9DA",
"y.	c #9BC7E5",
"z.	c #1DA0D6",
"A.	c #E9F2F8",
"B.	c #EEF4FA",
"C.	c #40A6D8",
"D.	c #EAF2F9",
"E.	c #294C87",
"F.	c #FBFDFE",
"G.	c #2EA2D7",
"H.	c #65B0DC",
"I.	c #F6FAFD",
"J.	c #AED0E9",
"K.	c #89BEE2",
"L.	c #546894",
"M.	c #46A7D9",
"N.	c #C3DBEE",
"O.	c #F8FBFD",
"P.	c #FEFFFF",
"Q.	c #D7E7F3",
"R.	c #A7CCE8",
"S.	c #AACEE9",
"T.	c #BEC4D1",
"U.	c #6DB4DE",
"V.	c #D6E7F4",
"W.	c #9CC8E6",
"X.	c #C9DFF0",
"Y.	c #3B578B",
"Z.	c #2AA1D7",
"`.	c #A7CCE7",
" +	c #53AADA",
".+	c #8C97B1",
"++	c #2F4F88",
"@+	c #D3E4F2",
"#+	c #104383",
"$+	c #76B6DF",
"%+	c #3B568B",
"&+	c #B8D5EB",
"*+	c #536894",
"=+	c #F2F4F7",
"-+	c #939DB5",
". . . . . . . . . . . . . . . . . . . . . . . .     + + + + + + + + + + + +     . . . . . . . . . . . . . . . . . . . . . . . . ",
". . . . . . . . . . . . . . . . . . . . .   + + + + + + + + + + + + + + + + + + + +   . . . . . . . . . . . . . . . . . . . . . ",
". . . . . . . . . . . . . . . . . . .   + + + + + + + + + + + + + + + + + + + + + + + +   @ . . . . . . . . . . . . . . . . . . ",
". . . . . . . . . . . . . . . . . + + + + + + + + + + + + + + + + + + + + + + + + + + + + + + # . . . . . . . . . . . . . . . . ",
". . . . . . . . . . . . . . .   + + + + + + + + + + + + + + + + + + + + + + + + + + + + + + + +   . . . . . . . . . . . . . . . ",
". . . . . . . . . . . . .   + + + + + + + + + + + + + + + + + + + + + + + + + + + + + + + + + + + +   . . . . . . . . . . . . . ",
". . . . . . . . . . . .   + + + + + + + + + + + + + + + + + + + + + + + + + + + + + + + + + + + + + +   . . . . . . . . . . . . ",
". . . . . . . . . . . + + + + + + + + + + + + + + + + + + + + + + + + + + + + + + + + + + + + + + + + + + . . . . . . . . . . . ",
". . . . . . . . . . + + + + + + + + + + + + + + + + + $ % & * = = * & % $ + + + + + + + + + + + + + + + + + . . . . . . . . . . ",
". . . . . . . . . + + + + + + + + + + + + + + - ; > , ' ) ! ~ { { ~ ! ) ' , ] ^ / + + + + + + + + + + + + + + . . . . . . . . . ",
". . . . . . . . + + + + + + + + + + + + + ( _ : < [ } | 1 1 1 1 1 1 1 1 2 } 3 4 : 5 6 + + + + + + + + + + + + + . . . . . . . . ",
". . . . . . . + + + + + + + + + + + + 7 8 9 0 } 1 1 1 1 1 1 1 1 1 1 1 1 1 1 1 1 a b c d 7 + + + + + + + + + + + + . . . . . . . ",
". . . . . .   + + + + + + + + + + + e f g h 1 1 1 1 1 1 1 1 1 1 1 1 1 1 1 1 1 1 1 1 i j k l + + + + + + + + + + +   . . . . . . ",
". . . . .   + + + + + + + + + + m n o p 1 1 1 1 1 1 1 1 1 1 1 1 1 1 1 1 1 1 1 1 1 1 1 1 q o _ m + + + + + + + + + +   . . . . . ",
". . . . . + + + + + + + + + + r s t u 1 1 1 1 1 1 1 1 1 1 1 1 1 1 1 1 1 1 1 1 1 1 1 1 1 1 v t w x + + + + + + + + + + . . . . . ",
". . . .   + + + + + + + + + x y z A 1 1 1 1 1 1 1 1 1 1 1 1 1 1 1 1 1 1 1 1 1 1 1 1 1 1 1 1 A B C D + + + + + + + + +   . . . . ",
". . . . + + + + + + + + + m E z F 1 1 1 1 1 1 1 1 1 1 1 1 1 1 1 1 1 1 1 1 1 1 1 1 1 1 1 1 1 1 F B E m + + + + + + + + + # . . . ",
". . . + + + + + + + + + + n t G 1 1 1 1 1 1 1 1 1 1 1 1 1 1 1 1 1 1 1 1 1 1 1 1 1 1 1 1 1 1 1 1 A t n + + + + + + + + + + . . . ",
". . . + + + + + + + + + l o v 1 1 1 H I { { { { { { { J 1 1 1 1 1 1 1 1 K I { { { { { { { L 1 1 1 v o e + + + + + + + + + . . . ",
". .   + + + + + + + + 7 f p 1 1 1 1 M N O O O O O O O P Q 1 1 1 1 1 1 1 R S T O O O O U ) V 1 1 1 1 p k 7 + + + + + + + +   . . ",
". . + + + + + + + + + d j 1 1 1 1 1 1 F W O O O O O O O X 2 1 1 1 1 1 1 1 1 Y Z ` O  ...1 1 1 1 1 1 1 j 8 + + + + + + + + + . . ",
".   + + + + + + + + 6 9 i 1 1 1 1 1 1 1 2 g O O O O O O O +.1 1 1 1 1 1 1 1 1 1 @.O #.1 1 1 1 1 1 1 1 h 9 ( + + + + + + + +   . ",
". + + + + + + + + + _ 0 1 1 1 1 1 1 1 1 1 $.%.O O O O O O &.*.1 1 1 1 1 1 1 1 1 =.O -.1 1 1 1 1 1 1 1 1 0 _ + + + + + + + + + . ",
". + + + + + + + + - : ;.1 1 1 1 1 1 1 1 1 1 >.O O O O O O O ,.'.1 1 1 1 1 1 1 1 ).O !.1 1 1 1 1 1 1 1 1 ;.: ~.+ + + + + + + + . ",
"  + + + + + + + + {.< 1 1 1 1 1 1 1 1 1 1 1 >.U ].O O O O O O ^.H 1 1 1 1 1 1 1 ).O !.1 1 1 1 1 1 1 1 1 1 < ; + + + + + + + +   ",
"  + + + + + + + + > 3 1 1 1 1 1 1 1 1 1 1 1 >./.(.&.O O O O O O _.1 1 1 1 1 1 1 ).O !.1 1 1 1 1 1 1 1 1 1 [ > + + + + + + + +   ",
"+ + + + + + + + + , :.1 1 1 1 1 1 1 1 1 1 1 >./.1 <.O O O O O O O [.1 1 1 1 1 1 ).O !.1 1 1 1 1 1 1 1 1 1 } }.+ + + + + + + + + ",
"+ + + + + + + + $ ' 2 1 1 1 1 1 1 1 1 1 1 1 >./.1 2 z O O O O O O ` |.1 1 1 1 1 ).O !.1 1 1 1 1 1 1 1 1 1 | ' 1.+ + + + + + + + ",
"+ + + + + + + + 2.) 1 1 1 1 1 1 1 1 1 1 1 1 >./.1 1 3.4.O O O O O O 5.6.1 1 1 1 ).O !.1 1 1 1 1 1 1 1 1 1 1 ) 7.+ + + + + + + + ",
"+ + + + + + + + & ! 1 1 1 1 1 1 1 1 1 1 1 1 >./.1 1 1 8.9.O O O O O O 0.a.1 1 1 ).O !.1 1 1 1 1 1 1 1 1 1 1 ! & + + + + + + + + ",
"+ + + + + + + + * ~ 1 1 1 1 1 1 1 1 1 1 1 1 >./.1 1 1 1 b.c.O O O O O O d.e.1 1 ).O !.1 1 1 1 1 1 1 1 1 1 1 f.* + + + + + + + + ",
"+ + + + + + + + = { 1 1 1 1 1 1 1 1 1 1 1 1 >./.1 1 1 1 1 g.h.O O O O O O i.1 1 ).O !.1 1 1 1 1 1 1 1 1 1 1 { j.+ + + + + + + + ",
"+ + + + + + + + = { 1 1 1 1 1 1 1 1 1 1 1 1 >./.1 1 1 1 1 1 k.O O O O O O O l.1 ).O !.1 1 1 1 1 1 1 1 1 1 1 { j.+ + + + + + + + ",
"+ + + + + + + + * ~ 1 1 1 1 1 1 1 1 1 1 1 1 >./.1 1 1 1 1 1 1 m.O O O O O O n.p ).O !.1 1 1 1 1 1 1 1 1 1 1 f.* + + + + + + + + ",
"+ + + + + + + + & ! 1 1 1 1 1 1 1 1 1 1 1 1 >./.1 1 1 1 1 1 1 o.p.O O O O O O q.r.O !.1 1 1 1 1 1 1 1 1 1 1 ! & + + + + + + + + ",
"+ + + + + + + + % ) 1 1 1 1 1 1 1 1 1 1 1 1 >./.1 1 1 1 1 1 1 1 s.t.O O O O O O h.O !.1 1 1 1 1 1 1 1 1 1 1 ) 7.+ + + + + + + + ",
"+ + + + + + + + $ ' | 1 1 1 1 1 1 1 1 1 1 1 >./.1 1 1 1 1 1 1 1 1 u.n.O O O O O O O !.1 1 1 1 1 1 1 1 1 1 | ' v.+ + + + + + + + ",
"+ + + + + + + + + }.} 1 1 1 1 1 1 1 1 1 1 1 >./.1 1 1 1 1 1 1 1 1 1 w.O O O O O O O !.1 1 1 1 1 1 1 1 1 1 x.}.+ + + + + + + + + ",
"  + + + + + + + + > y.1 1 1 1 1 1 1 1 1 1 1 >./.1 1 1 1 1 1 1 1 1 1 2 ! O O O O O O !.1 1 1 1 1 1 1 1 1 1 [ > + + + + + + + +   ",
"  + + + + + + + + ; < 1 1 1 1 1 1 1 1 1 1 1 >./.1 1 1 1 1 1 1 1 1 1 1 z.d.O O O O O !.1 1 1 1 1 1 1 1 1 1 < ; + + + + + + + +   ",
". + + + + + + + + - : ;.1 1 1 1 1 1 1 1 1 1 A.B.2 1 1 1 1 1 1 1 1 1 1 1 C.D.O O O O !.1 1 1 1 1 1 1 1 1 ;.: E.+ + + + + + + + . ",
". + + + + + + + + + _ 0 1 1 1 1 1 1 1 1 1 F q.F.G.1 1 1 1 1 1 1 1 1 1 1 1 H.I.O O O !.1 1 1 1 1 1 1 1 1 0 _ + + + + + + + + + . ",
".   + + + + + + + + ( 9 h 1 1 1 1 1 1 1 1 !.O O J.2 1 1 1 1 1 1 1 1 1 1 1 1 K.h.O O !.1 1 1 1 1 1 1 1 h c L.+ + + + + + + +   . ",
". . + + + + + + + + + 8 r.1 1 1 1 1 M.l.N.O.O O P.Q.R.H.1 1 1 1 1 1 1 1 1 1 1 S.O O !.1 1 1 1 1 1 1 1 g T.+ + + + + + + + + . . ",
". .   + + + + + + + + 7 f p 1 1 1 1 U.V.V.V.V.V.V.V.V.W.1 1 1 1 1 1 1 1 1 1 1 Y X.O !.1 1 1 1 1 1 1 p f Y.+ + + + + + + +   . . ",
". . . + + + + + + + + + e D.u 1 1 1 1 1 1 1 1 1 1 1 1 1 1 1 1 1 1 1 1 1 1 1 1 1 Z.`. +1 1 1 1 1 1 u D..++ + + + + + + + + . . . ",
". . . + + + + + + + + + + d t G 1 1 1 1 1 1 1 1 1 1 1 1 1 1 1 1 1 1 1 1 1 1 1 1 1 1 1 1 1 1 1 1 G t d + + + + + + + + + + . . . ",
". . . # + + + + + + + + + m s z F 1 1 1 1 1 1 1 1 1 1 1 1 1 1 1 1 1 1 1 1 1 1 1 1 1 1 1 1 1 1 F z s m + + + + + + + + + # . . . ",
". . . .   + + + + + + + + + r y z $.1 1 1 1 1 1 1 1 1 1 1 1 1 1 1 1 1 1 1 1 1 1 1 1 1 1 1 1 G z y x + + + + + + + + +   . . . . ",
". . . . . + + + + + + + + + + ++s @+u 1 1 1 1 1 1 1 1 1 1 1 1 1 1 1 1 1 1 1 1 1 1 1 1 1 1 v t E x + + + + + + + + + + . . . . . ",
". . . . .   + + + + + + + + + + #+8 D.$+1 1 1 1 1 1 1 1 1 1 1 1 1 1 1 1 1 1 1 1 1 1 1 1 p D.d m + + + + + + + + + +   . . . . . ",
". . . . . .   + + + + + + + + + + + .+f g h 1 1 1 1 1 1 1 1 1 1 1 1 1 1 1 1 1 1 1 1 h j f e + + + + + + + + + + +   . . . . . . ",
". . . . . . . + + + + + + + + + + + + %+T.c &+} 1 1 1 1 1 1 1 1 1 1 1 1 1 1 1 1 ;.0 9 8 7 + + + + + + + + + + + + . . . . . . . ",
". . . . . . . . + + + + + + + + + + + + + *+_ =+< [ x.| 1 1 1 1 1 1 1 1 2 } 3 < : _ ( + + + + + + + + + + + + + . . . . . . . . ",
". . . . . . . . . + + + + + + + + + + + + + + / -+> }.' ) ! f.{ { f.! ) ' }.> ; E.+ + + + + + + + + + + + + + . . . . . . . . . ",
". . . . . . . . . . + + + + + + + + + + + + + + + + + v.7.& * = = * & 7.1.+ + + + + + + + + + + + + + + + + . . . . . . . . . . ",
". . . . . . . . . . . + + + + + + + + + + + + + + + + + + + + + + + + + + + + + + + + + + + + + + + + + + . . . . . . . . . . . ",
". . . . . . . . . . . .   + + + + + + + + + + + + + + + + + + + + + + + + + + + + + + + + + + + + + +   . . . . . . . . . . . . ",
". . . . . . . . . . . . .   + + + + + + + + + + + + + + + + + + + + + + + + + + + + + + + + + + + +   . . . . . . . . . . . . . ",
". . . . . . . . . . . . . . .   + + + + + + + + + + + + + + + + + + + + + + + + + + + + + + + +   . . . . . . . . . . . . . . . ",
". . . . . . . . . . . . . . . . # + + + + + + + + + + + + + + + + + + + + + + + + + + + + + + # . . . . . . . . . . . . . . . . ",
". . . . . . . . . . . . . . . . . . .   + + + + + + + + + + + + + + + + + + + + + + + +   @ . . . . . . . . . . . . . . . . . . ",
". . . . . . . . . . . . . . . . . . . . .   + + + + + + + + + + + + + + + + + + + +   . . . . . . . . . . . . . . . . . . . . . ",
". . . . . . . . . . . . . . . . . . . . . . . .     + + + + + + + + + + + +     . . . . . . . . . . . . . . . . . . . . . . . . "};
