/* XPM */
static char * s_stone_xpm[] = {
"64 64 9 1",
" 	c None",
".	c #B4B4B4",
"+	c #7D7D7D",
"@	c #575757",
"#	c #DBDBDB",
"$	c #0C3D1A",
"%	c #B2A900",
"&	c #FFF200",
"*	c #A5A5A5",
"................................................................",
"................................................................",
"................................................................",
"................................................................",
"................................................................",
"..........................................................++....",
".................................++++.....................+@+...",
".....++++++++...................++@@++...................+@.+...",
"...++@@@@@@@@+++................+@@.@@...................+@.++..",
".++@@@..........+++............++@...@+.................+@@..+..",
"++@@@.............++...........+@@....@++...............+@...+..",
"+@@@...............++.........++@.......++..............+@...+..",
".+@@.................++.......+@.........+++............+@..#+..",
".++@..................+.......+@...........++............+..#+..",
"..+@..................++......+@............++...........+.#++..",
"...+@.................#+......+@.............++.........$$+#+...",
"....++................#+......+@..............++.......$$.+++...",
"..$.$++...............#+......$+@..............+.......$........",
"..$$$$++.............#++......$+@..............+$$.....$........",
"...$$$.+++###########+$....%%.$+@..............+.$.....$........",
".....$...+++$++++++++.$$...%&&$.+..............+.$.....$...%%%..",
".....$..$...$$....$....$....&&$..+............#+.$..$..$.%%&&...",
".....$..$....$.$..$....$.....&$..++...........#+..$$$..$.&&&&...",
"....%%..$....$.$..$....$.$$..$$...++..........#+..$$...$&&&.....",
"...%&&%.$....$$$.$...$.$$$...$.....++.###...###...$....$........",
"...%&&%..$...$...$.$$..$$....$......$+++####+++...$.$$.$........",
"....%&&&$....$...$$$...$$....$.......$.++++++.....$..$$$........",
"......&&$$...$....$.....$$++++++.....$....$.......$....$........",
"+++......$...$....$..+++++@@@@@@+++..$.....$...$$.$....$.......+",
"@@++.....$...$....$.++@@@@@@@.....++.$.....$....$$$...$.....++++",
"..@+..$$..$.......$++@@@@@.........++$.....$.....$$...$....++@@@",
"...@+..$$.$........+@@..............+$......$.....$...$$..++@...",
"....++..$$$.......++@@..............++......$..%..$....$..+@....",
".....+....$.......+@@................++....$..%&..$....$..+@....",
".....+...$.......++@..................+....$%%&&..$$..$$..+@....",
".....+...$.....++@@@..................++...$&&&....$..$...+@....",
"......+..$.....++@@....................+...$&......$..$...+.....",
"......+..$$.....++@...................#+...$.......$..$...+.....",
".......+..$$$$...++.#................#++...$.......$..$.$$++....",
".......++.$$.......$+##########..####++....$.$$....$..$$$..++...",
".....#..+.$........$$++++++++++##+++++.....$$$....$...$.....+...",
"....#++++.$..%%%%...$.......$.++++.$.......$$.....$...$.....++..",
"..###+....$.%&&&%...$$......$..*...$$......$......$$..$......+#.",
".#+++.....$%&&&&....$$......$..%%%..$......$.......$..$$.....++#",
"#+........$.&&&....$$......$$...%&&.$......$+++....$...$..$$..++",
"++.......$$........$$..%%..$.....&&&$.......$$++...$...$...$$.$+",
".....$$..$.......$$.$.%&&..$.......$...%...+@...+......$....$.$.",
"......$$$$........$$$%&&...$.......$..%&%..+@...++......$...$$$.",
"........$$..........$&&....$.$$....$.%&&%.+@.....+......$....$..",
".........$..........$&.....$$$.....$&&&...+@.....+......$.$..$..",
".........$$........$.......$.......$.....+@......+......$..$.$..",
"..........$........$$......$..%%...$.....+@....#++......$..$.$..",
"..........$.........$......$.%&&%..$.....+@....#+.......$..$.$..",
"..........$.........$......$%&&&...$.....+.....#+..........$$$..",
"..........$................$.&&....$......+##..#+...........$...",
"..........$................$$....$.$$.....+++##++........%%.$...",
".........$$.................$.....$$$.......++++........%&&%$...",
".........$......+++++.......$......$$....................%&&.$..",
"........$$....++@@@@+++.....$$......$.....................&&&$..",
"........$.....@@@.....++.....$......$........................$..",
".............+@.........++...$......$........................$..",
"............+@@..........++..$...............................$..",
"...........+@@............+.....................................",
"..........++...###########++...................................."};
