/* XPM */
static char * w_basement_xpm[] = {
"64 64 27 1",
" 	c None",
".	c #061608",
"+	c #040F06",
"@	c #030B04",
"#	c #081F0C",
"$	c #030A04",
"%	c #020703",
"&	c #464646",
"*	c #543123",
"=	c #361E14",
"-	c #FFF200",
";	c #00B7EF",
">	c #B2A900",
",	c #B25800",
"'	c #000000",
")	c #6B0022",
"!	c #FF7E00",
"~	c #990030",
"{	c #FFC20E",
"]	c #1F1F1F",
"^	c #B2B2B2",
"/	c #B0A57B",
"(	c #FFFFFF",
"_	c #010502",
":	c #0F0F0F",
"<	c #2F3699",
"[	c #010301",
"...+++@++.#####$########$$$$$$###################$$$$$$$$###$###",
"....##.########$####$$$$%++++$$$$#######$$$$$&&$$$.@+++.$$#$$###",
"..#############$#$$$$#++@+##..++%$$###$$$...*.+*++@.#####$#$####",
".##############$$$.@++.########.++$##$$.@@**.++.**#######$$#####",
".#############$$$.@.#############..$$$+@**########**#####$$#####",
"#############$$#$.#################$$+@*############*###$#$$####",
"#############$##$.#################$$++==============##$$##$####",
"#######$$$$$-$##$$################$$$.#=;;;;;;;;;;;;=$$$###$$$##",
"$$$$$$$+.++>>$$$#$###############$$#$##=;;;;;;;;;;;;=$#######$$$",
"#####$$...>,>.##$$$$$$$$$$$$$$$$$###$$#=;;;;';;';;;;=###########",
"#####$@%##,)!####$$######$$$$$$$$$$$#$$=;;;;'''';;;;=###########",
"#####$@####~######$$##$$$$.+@@++@@+$$$$=;;;;'{'{;;;;=$$$$$$$####",
"$$##$$+####]#######$#$$#^^^^^.###.@+.$$=';;;'''';;;;=@@.+@.$$###",
"#$$#$..###///#####$$$$+^(((((^#####.+.$=;';;;'';;;;;=..++#++$$#$",
"##$#$$####///#####$#$.^^$((($((######..=;';;;'';;;;;=######..$#$",
"#$$##$$###///###$$$#$%^($$($$((#######+=;';;''';;;;;=#######$##$",
"$#####$$$$///$$$$####$^($$($$((#######.=;'';'''';;;;=######$$###",
"######$$$$///$$#######^(($($(((########=;;$''''';;;;=####$$$####",
"###$$$$.++///+_$$######^((((((#########=;;;''''';;;;=$$$$$##$$##",
"##$$#.@...///.++$$$#####('''($$$$$$$$$$=;;;''''';;;;=$#####$$+$#",
"$$%.%+.###///##...$$$$##('''($$$$$$$$$$=;;;;'''::;;;=$$####$.+$$",
"$+@++###<#///#<######$##(((((#++..+...%==============..%##$$+.#$",
"$+@+#####<<<<<#######$$#$(((++.+@@++++.#$$$#$$.+++.#####$#$.+##$",
"&&&&&&&&&&&&&&&&&&&&&&&&&&&&&&&&&&&&&&&&&&&&&&&&&&&&&&&&&&&&&&&&",
"&&&&&&&&&&&&&&&&&&&&&&&&&&&&&&&&&&&&&&&&&&&&&&&&&&&&&&&&&&&&&&&&",
"$$..#####&&##########$$#$+#####&&##########$$%######&&#$$$+####$",
"#$$######&&###$$$$$$$$##$$#####&&#########$$#$$####$&&$$#$.####$",
"##$$$####&&$$$###########$$$###&&#####$$$$$###$$$$$$&&###$####$$",
"####$$$$$&&%%$$$$$$#######$$$#$&&$$$$$$###$$$$$#####&&####$###$#",
"$$$$#####&&+....+@+_$$######$$%&&$####$$$$$+@@+_$$$#&&####$$$$##",
"+@@@_$$##&&@+......++%$$$%_%+..&&$$###$#+@+..#.++.$$&&####$$$$$$",
"###.++$$#$@.########.+++++@@######$##$$@+.#######++.$$##$$%@_%%@",
"###.##+#$$@.######################$#$$.%###########++%$$$+%@####",
"#########$@.######################$$$++#############.+$$+@######",
"#########$$$######################$$.@.##############.%$..######",
"#########$#$$#####################$$+_.###############$#$#######",
"#######$$$##$$$###############$$$$##$%+.##############$#$$$#####",
"#####$$$######$$$###$$$$$$$$$$$#####$$.##$$$########$$####$$$###",
"$$$$$$##$$$$$$$#$$$$$#########$$$$$$$$$$$##$$$$$$$$$$#######$$$$",
"####$$$$$.+%+@.%$$$$#########$_..+.++@._$$$#########$$$$$%%#####",
"#$%%%.++++.+++++...%%$$#####$%.+.####.+.+#$$######$$$.+@++._%$##",
"$$.@@@+@+.############$$$##$_@.############$####$$..@+.....@+%$#",
"$.%....#################$##$.+#############$$##$$%@..#######+.$#",
"%.+######################$#$@+##############$$$$+@###########+%$",
"$+.######################$$$@+###############$$.@#############.%",
"$+.######################$$$$###############$$$++##############$",
"$%.#####################$$##$############$$$##$.+##############$",
"#$$$########$$$$$$$$$$$$#####$$$##$$$$$$$######$$#######$$$###$$",
"###$$$$$$$$$$##$$$$$$$$$$$######$$#####$$$$$$$$$$$$$$$$$##$$$$$#",
"$$$$$########$$$#..+@@+++[$$########$$$.+++_+++.%$$#####$$$$$$##",
"_%++$%$#####$#+..@++@+.##++._$####$$%++%@++.######$####$%.+++%$$",
"##.+++%$####$.++###########..#$##$$.++.###########$##$%$%_+..+++",
"#####.%%$##$.@@###############$$$$.@+#############$#$$.@_.######",
"######.+$$#$+@.################$$+@.##############$#$._+.#######",
"#########$#$%@#################$$++.##############$$$@@#########",
"#########$$$#+#################$$++.###############$$###########",
"##########$$#.#################$$#.################$$###########",
"###########$$#################$$$$#################$#$$$########",
"###########$$$$##############$$##$$$$###########$$$$###$$$$#####",
"#######$$$$$##$$$$$###$$$%%$$$$$$$$$$$$$$$$$$$$$$$$$$$$$$#$$####",
"$$$$$$$$$$$$$$####$$$$$##$$.#+......+#$$###$$$$$$#######$$#$$$$$",
"$$##$$+++@+###$$########$+++@+..####@@..$###$+.##########$####$$",
"#$$#$#.########$$$#####$_%+##############$##$$+##########$##$$$#",
"##$$.+############$###$$_%.###############$##$$$$$$$$$$$$$##$###"};
