/* XPM */
static char * fio_xpm[] = {
"64 64 153 2",
"  	c None",
". 	c #A000FF",
"+ 	c #C69BFF",
"@ 	c #C59AFF",
"# 	c #FBFBFC",
"$ 	c #9A8BAF",
"% 	c #9B8CB0",
"& 	c #61358B",
"* 	c #C2B9CE",
"= 	c #C3BBCF",
"- 	c #FFFFFF",
"; 	c #FEFAFA",
"> 	c #EDB3B2",
", 	c #FEFBFB",
"' 	c #E58A87",
") 	c #DD3224",
"! 	c #E68E8B",
"~ 	c #E68A87",
"{ 	c #F8E5E4",
"] 	c #DD3426",
"^ 	c #FAEEEE",
"/ 	c #E78F8C",
"( 	c #EBA7A5",
"_ 	c #F6DDDC",
": 	c #F9E9E9",
"< 	c #E26F6B",
"[ 	c #E58986",
"} 	c #E4807D",
"| 	c #EBA8A6",
"1 	c #EFBFBD",
"2 	c #F2CDCC",
"3 	c #FCF4F4",
"4 	c #E9A2A0",
"5 	c #E4817D",
"6 	c #ECB0AE",
"7 	c #E68A88",
"8 	c #E68B88",
"9 	c #FBEEED",
"0 	c #DD3325",
"a 	c #FDF7F7",
"b 	c #FCF3F3",
"c 	c #E3726E",
"d 	c #E68E8C",
"e 	c #FEFBFA",
"f 	c #E68C89",
"g 	c #E79290",
"h 	c #FEFAF9",
"i 	c #E47D79",
"j 	c #E68F8C",
"k 	c #C2BACE",
"l 	c #E9A19F",
"m 	c #EDB4B3",
"n 	c #F0C1C0",
"o 	c #FFFDFD",
"p 	c #F9E8E8",
"q 	c #DE4B43",
"r 	c #DE382B",
"s 	c #E47E7A",
"t 	c #F0C2C1",
"u 	c #F5DAD9",
"v 	c #F8E4E4",
"w 	c #EEB7B6",
"x 	c #E58784",
"y 	c #DF4C44",
"z 	c #F9E9E8",
"A 	c #F8E3E3",
"B 	c #DF4134",
"C 	c #F6DEDD",
"D 	c #E37773",
"E 	c #DE4238",
"F 	c #F7DEDE",
"G 	c #DE372B",
"H 	c #F7DEDD",
"I 	c #E47E7B",
"J 	c #F8E3E2",
"K 	c #F8E4E3",
"L 	c #ECAEAC",
"M 	c #E58481",
"N 	c #E1645E",
"O 	c #E37975",
"P 	c #E2736F",
"Q 	c #EEBBBA",
"R 	c #F1C7C5",
"S 	c #DD3528",
"T 	c #DE4239",
"U 	c #F2CECD",
"V 	c #E0554D",
"W 	c #EBA9A7",
"X 	c #EFBCBA",
"Y 	c #F9E5E4",
"Z 	c #F2CCCC",
"` 	c #F0C4C3",
" .	c #DE3B2F",
"..	c #F1C7C6",
"+.	c #F2CCCB",
"@.	c #E68582",
"#.	c #DE4339",
"$.	c #DF4E46",
"%.	c #E68581",
"&.	c #FEFCFB",
"*.	c #EBABA9",
"=.	c #EEB6B5",
"-.	c #E99C99",
";.	c #DAD5E1",
">.	c #B9B0C7",
",.	c #DBD6E1",
"'.	c #DF4B43",
").	c #E05E58",
"!.	c #DBD6E2",
"~.	c #C3BACF",
"{.	c #A092B4",
"].	c #62368C",
"^.	c #D4CFDC",
"/.	c #A091B4",
"(.	c #FCFBFC",
"_.	c #A497B7",
":.	c #61348B",
"<.	c #D3CEDB",
"[.	c #A496B7",
"}.	c #FCFCFD",
"|.	c #A99CBB",
"1.	c #E05D57",
"2.	c #A99CBA",
"3.	c #FDFDFE",
"4.	c #AFA4BF",
"5.	c #D2CDDA",
"6.	c #AFA3BF",
"7.	c #FEFEFF",
"8.	c #B4AAC3",
"9.	c #D2CCDA",
"0.	c #B6ADC4",
"a.	c #D0CAD8",
"b.	c #D0CBD9",
"c.	c #CBC5D5",
"d.	c #CCC5D5",
"e.	c #B7ADC4",
"f.	c #C4BCD0",
"g.	c #C5BDD0",
"h.	c #B7AEC5",
"i.	c #B9B0C6",
"j.	c #BDB4CA",
"k.	c #BCB3C9",
"l.	c #CAC3D4",
"m.	c #C9C2D4",
"n.	c #CFC9D8",
"o.	c #CFC9D7",
"p.	c #D1CCD9",
"q.	c #D4CEDB",
"r.	c #D6D0DD",
"s.	c #64398D",
"t.	c #63398D",
"u.	c #D5D0DD",
"v.	c #D9D4E0",
". . . . . . . . . . . . . . . . . . . . . . . . . . . . . . . + @ . . . . . . . . . . . . . . . . . . . . . . . . . . . . . . . ",
". . . . . . . . . . . . . . . . . . . . . . . . . . . . . . + # # @ . . . . . . . . . . . . . . . . . . . . . . . . . . . . . . ",
". . . . . . . . . . . . . . . . . . . . . . . . . . . . . + # $ % # @ . . . . . . . . . . . . . . . . . . . . . . . . . . . . . ",
". . . . . . . . . . . . . . . . . . . . . . . . . . . . + # $ & & % # @ . . . . . . . . . . . . . . . . . . . . . . . . . . . . ",
". . . . . . . . . . . . . . . . . . . . . . . . . . . + # $ & & & & % # @ . . . . . . . . . . . . . . . . . . . . . . . . . . . ",
". . . . . . . . . . . . . . . . . . . . . . . . . . + # $ & & & & & & % # @ . . . . . . . . . . . . . . . . . . . . . . . . . . ",
". . . . . . . . . . . . . . . . . . . . . . . . . + # $ & & & * = & & & % # @ . . . . . . . . . . . . . . . . . . . . . . . . . ",
". . . . . . . . . . . . . . . . . . . . . . . . + # $ & & & * - - = & & & % # @ . . . . . . . . . . . . . . . . . . . . . . . . ",
". . . . . . . . . . . . . . . . . . . . . . . + # $ & & & * - - - - = & & & % # @ . . . . . . . . . . . . . . . . . . . . . . . ",
". . . . . . . . . . . . . . . . . . . . . . + # $ & & & * - - - - - - = & & & % # @ . . . . . . . . . . . . . . . . . . . . . . ",
". . . . . . . . . . . . . . . . . . . . . + # $ & & & * - - - ; > , - - = & & & % # @ . . . . . . . . . . . . . . . . . . . . . ",
". . . . . . . . . . . . . . . . . . . . + # $ & & & * - - - ; ' ) ! , - - = & & & % # @ . . . . . . . . . . . . . . . . . . . . ",
". . . . . . . . . . . . . . . . . . . + # $ & & & * - - - ; ' ) ) ) ! , - - = & & & % # @ . . . . . . . . . . . . . . . . . . . ",
". . . . . . . . . . . . . . . . . . + # $ & & & * - - - ; ' ) ) ) ) ) ! , - - = & & & % # @ . . . . . . . . . . . . . . . . . . ",
". . . . . . . . . . . . . . . . . + # $ & & & * - - - ; ~ ) ) ) ) ) ) ) ! , - - = & & & % # @ . . . . . . . . . . . . . . . . . ",
". . . . . . . . . . . . . . . . + # $ & & & * - - - - { ) ) ) ) ) ) ) ) ] ^ - - - = & & & % # @ . . . . . . . . . . . . . . . . ",
". . . . . . . . . . . . . . . + # $ & & & * - - - - - - / ) ) ) ) ) ) ) ( - - - - - = & & & % # @ . . . . . . . . . . . . . . . ",
". . . . . . . . . . . . . . + # $ & & & * - - - - - - - _ ) ) ) ) ) ) ) : - - - - - - = & & & % # @ . . . . . . . . . . . . . . ",
". . . . . . . . . . . . . + # $ & & & * - - - - - - - - - < ) ) ) ) ) [ - - - - - - - - = & & & % # @ . . . . . . . . . . . . . ",
". . . . . . . . . . . . + # $ & & & * - - - , ( } | , - - 1 ) ) ) ) ) 2 - - 3 4 5 6 , - - = & & & % # @ . . . . . . . . . . . . ",
". . . . . . . . . . . + # $ & & & * - - - ; 7 ) ) ) 8 , - 9 ) ) ) ) 0 a - b c ) ) ) d , - - = & & & % # @ . . . . . . . . . . . ",
". . . . . . . . . . + # $ & & & * - - - e 7 ) ) ) ) ) f , - c ) ) ) g - h i ) ) ) ) ) j , - - = & & & % # @ . . . . . . . . . . ",
". . . . . . . . . + # $ & & & k - - - , 8 ) ) ) ) ) ) ) l - m ) ) ) n o ! ) ) ) ) ) ) ) j , - - = & & & % # @ . . . . . . . . . ",
". . . . . . . . + # $ & & & k - - - - p q ) ) ) r s ) ) ) t u ) ) ) v w ) ) ) x ) ) ) ) y z - - - = & & & % # @ . . . . . . . . ",
". . . . . . . + # $ & & & k - - - - - - A q ) ) B - C D ) E F ) ) G H ) ) I J - ) ) ) y K - - - - - = & & & % # @ . . . . . . . ",
". . . . . . + # $ & & & k - - - - - - - - A q ) B - - , L ) M N ) O P ) Q o - - ) ) y K - - - - - - - = & & & % # @ . . . . . . ",
". . . . . + # $ & & & k - - - - - - - - - - A q B - - - - R ) S ) T ) U - - - - ) y K - - - - - - - - - = & & & % # @ . . . . . ",
". . . . + # $ & & & k - - - - - - - - - - - - A V - - - - - W ) ) ) X - - - - - y K - - - - - - - - - - - = & & & % # @ . . . . ",
". . . + # $ & & & k - - - - - - - - - - - - - - Y - - - - Z ` ) )  ...+.- - - - K - - - - - - - - - - - - - = & & & % # @ . . . ",
". . + # $ & & & k - - - - - - - - - - - - - - - - - - - - @.@.#.) $.@.%.- - - - - - - - - - - - - - - - - - - = & & & % # @ . . ",
". + # $ & & & k - - - - - - - - - - - - - - - - - - - - - &.*.) ) ) =.- - - - - - - - - - - - - - - - - - - - - = & & & % # @ . ",
"+ # $ & & & k - - - - - - - - - - - - - - - - - - - - - - f ) ) ) ) ) -.- - - - - - - - - - - - - - - - - - - - - = & & & % # @ ",
"+ # $ & & & k - - - ;.>.>.>.>.>.>.>.>.>.>.>.>.,.- - - - - '.) ) ) ) ) ).- - - - !.>.>.>.>.>.>.>.>.>.>.>.>.;.- - - ~.& & & % # @ ",
". + # $ & & & k - - # {.& & & & & & & & & & & ].^.- - - - K q ) ) ) $.{ - - - ^.].& & & & & & & & & & & /.# - - ~.& & & % # @ . ",
". . + # $ & & & k - - (._.& & & & & & & & & & & :.<.- - - - K q ) y v - - - <.:.& & & & & & & & & & & [.(.- - ~.& & & % # @ . . ",
". . . + # $ & & & k - - }.|.& & & & & & & & & & & :.<.- - - - K 1.K - - - <.:.& & & & & & & & & & & 2.}.- - ~.& & & % # @ . . . ",
". . . . + # $ & & & k - - 3.4.& & & & & & & & & & & & 5.- - - - , - - - 5.& & & & & & & & & & & & 6.3.- - ~.& & & % # @ . . . . ",
". . . . . + # $ & & & k - - 7.8.& & & & & & & & & & & & 9.- - - - - - 9.& & & & & & & & & & & & 8.7.- - ~.& & & % # @ . . . . . ",
". . . . . . + # $ & & & k - - - 0.& & & & & & & & & & & & a.- - - - b.& & & & & & & & & & & & 0.- - - ~.& & & % # @ . . . . . . ",
". . . . . . . + # $ & & & k - - - 0.& & & & & & & & & & & & c.- - d.& & & & & & & & & & & & 0.- - - ~.& & & % # @ . . . . . . . ",
". . . . . . . . + # $ & & & k - - - e.& & & & & & & & & & & & f.g.& & & & & & & & & & & & e.- - - ~.& & & % # @ . . . . . . . . ",
". . . . . . . . . + # $ & & & k - - - h.& & & & & & & & & & & & & & & & & & & & & & & & h.- - - ~.& & & % # @ . . . . . . . . . ",
". . . . . . . . . . + # $ & & & k - - - >.& & & & & & & & & & & & & & & & & & & & & & i.- - - ~.& & & % # @ . . . . . . . . . . ",
". . . . . . . . . . . + # $ & & & k - - - j.& & & & & & & & & & & & & & & & & & & & k.- - - ~.& & & % # @ . . . . . . . . . . . ",
". . . . . . . . . . . . + # $ & & & k - - - ~.& & & & & & & & & & & & & & & & & & * - - - ~.& & & % # @ . . . . . . . . . . . . ",
". . . . . . . . . . . . . + # $ & & & k - - - l.& & & & & & & & & & & & & & & & m.- - - ~.& & & % # @ . . . . . . . . . . . . . ",
". . . . . . . . . . . . . . + # $ & & & k - - - n.& & & & & & & & & & & & & & o.- - - ~.& & & % # @ . . . . . . . . . . . . . . ",
". . . . . . . . . . . . . . . + # $ & & & k - - - p.& & & & & & & & & & & & p.- - - ~.& & & % # @ . . . . . . . . . . . . . . . ",
". . . . . . . . . . . . . . . . + # $ & & & k - - - 5.& & & & & & & & & & 5.- - - ~.& & & % # @ . . . . . . . . . . . . . . . . ",
". . . . . . . . . . . . . . . . . + # $ & & & k - - - <.:.& & & & & & & <.- - - ~.& & & % # @ . . . . . . . . . . . . . . . . . ",
". . . . . . . . . . . . . . . . . . + # $ & & & k - - - <.:.& & & & :.<.- - - ~.& & & % # @ . . . . . . . . . . . . . . . . . . ",
". . . . . . . . . . . . . . . . . . . + # $ & & & k - - - q.& & & & <.- - - ~.& & & % # @ . . . . . . . . . . . . . . . . . . . ",
". . . . . . . . . . . . . . . . . . . . + # $ & & & k - - - r.s.t.u.- - - ~.& & & % # @ . . . . . . . . . . . . . . . . . . . . ",
". . . . . . . . . . . . . . . . . . . . . + # $ & & & k - - - ;.v.- - - ~.& & & % # @ . . . . . . . . . . . . . . . . . . . . . ",
". . . . . . . . . . . . . . . . . . . . . . + # $ & & & k - - - - - - ~.& & & % # @ . . . . . . . . . . . . . . . . . . . . . . ",
". . . . . . . . . . . . . . . . . . . . . . . + # $ & & & k - - - - ~.& & & % # @ . . . . . . . . . . . . . . . . . . . . . . . ",
". . . . . . . . . . . . . . . . . . . . . . . . + # $ & & & k - - ~.& & & % # @ . . . . . . . . . . . . . . . . . . . . . . . . ",
". . . . . . . . . . . . . . . . . . . . . . . . . + # $ & & & k ~.& & & % # @ . . . . . . . . . . . . . . . . . . . . . . . . . ",
". . . . . . . . . . . . . . . . . . . . . . . . . . + # $ & & & & & & % # @ . . . . . . . . . . . . . . . . . . . . . . . . . . ",
". . . . . . . . . . . . . . . . . . . . . . . . . . . + # $ & & & & % # @ . . . . . . . . . . . . . . . . . . . . . . . . . . . ",
". . . . . . . . . . . . . . . . . . . . . . . . . . . . + # $ & & % # @ . . . . . . . . . . . . . . . . . . . . . . . . . . . . ",
". . . . . . . . . . . . . . . . . . . . . . . . . . . . . + # $ % # @ . . . . . . . . . . . . . . . . . . . . . . . . . . . . . ",
". . . . . . . . . . . . . . . . . . . . . . . . . . . . . . + # # @ . . . . . . . . . . . . . . . . . . . . . . . . . . . . . . ",
". . . . . . . . . . . . . . . . . . . . . . . . . . . . . . . + @ . . . . . . . . . . . . . . . . . . . . . . . . . . . . . . . "};
