/* XPM */
static char * w_stone_xpm[] = {
"64 64 8 1",
" 	c None",
".	c #B4B4B4",
"+	c #7D7D7D",
"@	c #575757",
"#	c #DBDBDB",
"$	c #0C3D1A",
"%	c #A51419",
"&	c #ED1C24",
"................................................................",
"................................................................",
"................................................................",
"................................................................",
"................................................................",
"..........................................................++....",
".................................++++.....................+@+...",
".....++++++++...................++@@++...................+@.+...",
"...++@@@@@@@@+++................+@@.@@...................+@.++..",
".++@@@..........+++............++@...@+.................+@@..+..",
"++@@@.............++...........+@@....@++...............+@...+..",
"+@@@...............++.........++@.......++..............+@...+..",
".+@@.................++.......+@.........+++............+@..#+..",
".++@..................+.......+@...........++............+..#+..",
"..+@..................++......+@............++...........+.#++..",
"...+@.................#+......+@.............++.........$$+#+...",
"....++................#+......+@..............++.......$$.+++...",
"..$.$++...............#+......$+@..............+.......$........",
"..$$$$++.............#++..%%%.$+@..............+$$.....$........",
"...$$$.+++###########+$...%&&&$+@..............+.$.....$.%%%%...",
".....$...+++$++++++++.$$...%&&$.+..............+.$.....$%&&&&...",
".....$..$...$$....$....$....&&$..+............#+.$..$..$%&&&....",
".....$..$....$.$..$....$......$..++...........#+..$$$..$&&......",
"........$....$.$..$....$.$$..$$...++..........#+..$$...$........",
"......%.$....$$$.$...$.$$$...$.....++.###...###...$....$........",
"....%%&&.$...$...$.$$..$$....$......$+++####+++...$.$$.$........",
".....%&&$....$...$$$...$$....$.......$.++++++.....$..$$$........",
"......&&&$...$....$.....$$++++++.....$....$.......$....$........",
"+++......$...$....$..+++++@@@@@@+++..$.....$...$$.$....$.......+",
"@@++.....$...$....$.++@@@@@@@.....++.$.....$....$$$...$.....++++",
"..@+..$$..$.......$++@@@@@.........++$.....$.....$$...$....++@@@",
"...@+..$$.$........+@@..............+$......$.....$...$$..++@...",
"....++..$$$.......++@@..............++......$.....$....$..+@....",
".....+....$.......+@@................++....$...%..$....$..+@....",
".....+...$.......++@..................+....$..%&%.$$..$$..+@....",
".....+...$.....++@@@..................++...$...%&&.$..$...+@....",
"......+..$.....++@@....................+...$...%&&&$..$...+.....",
"......+..$$.....++@...................#+...$.....&&$..$...+.....",
".......+..$$$$...++.#................#++...$.......$..$.$$++....",
".......++.$$.......$+##########..####++....$.$$....$..$$$..++...",
".....#..+.$........$$++++++++++##+++++.....$$$....$...$.....+...",
"....#++++.$.........$.......$.++++.$.......$$.....$...$.....++..",
"..###+....$.........$$......$......$$......$......$$..$......+#.",
".#+++.....$.........$$......$.......$......$.......$..$$.....++#",
"#+........$........$$......$$.......$......$+++....$...$..$$..++",
"++.......$$........$$......$........$..%%...$$++...$...$...$$.$+",
".....$$..$.......$$.$......$.......$..%&%..+@...+......$....$.$.",
"......$$$$..%%....$$$......$.......$.%%&&..+@...++......$...$$$.",
"........$$.%&&%.....$...%..$.$$....$%&&&..+@.....+......$....$..",
".........$.%&&......$..%&%.$$$.....$.&&&..+@.....+......$.$..$..",
".........$$&&......$...%&&&$.......$.....+@......+......$..$.$..",
"..........$........$$...&&&$.......$.....+@....#++......$..$.$..",
"..........$.........$.....&$.......$.....+@....#+.......$..$.$..",
"..........$.........$......$.......$.....+.....#+..........$$$..",
"..........$................$.......$......+##..#+...........$...",
"..........$................$$....$.$$.....+++##++.......%%..$...",
".........$$.................$.....$$$.......++++........%&%.$...",
".........$......+++++.......$......$$...................%&&&.$..",
"........$$....++@@@@+++.....$$......$....................%&&&$..",
"........$.....@@@.....++.....$......$.....................&&.$..",
".............+@.........++...$......$........................$..",
"............+@@..........++..$...............................$..",
"...........+@@............+.....................................",
"..........++...###########++...................................."};
