/* XPM */
static char * wall_xpm[] = {
"10 10 3 1",
" 	c None",
".	c #7D7D7D",
"+	c #B4B4B4",
"..........",
".++++++++.",
".++++++++.",
".++++++++.",
".++++++++.",
".++++++++.",
".++++++++.",
".++++++++.",
".++++++++.",
".........."};
